{
	"patcher" : 	{
		"fileversion" : 1,
		"appversion" : 		{
			"major" : 8,
			"minor" : 5,
			"revision" : 3,
			"architecture" : "x64",
			"modernui" : 1
		}
,
		"classnamespace" : "box",
		"rect" : [ 1682.0, 138.0, 1313.0, 908.0 ],
		"bglocked" : 0,
		"openinpresentation" : 1,
		"default_fontsize" : 12.0,
		"default_fontface" : 0,
		"default_fontname" : "Arial",
		"gridonopen" : 1,
		"gridsize" : [ 15.0, 15.0 ],
		"gridsnaponopen" : 1,
		"objectsnaponopen" : 1,
		"statusbarvisible" : 2,
		"toolbarvisible" : 1,
		"lefttoolbarpinned" : 0,
		"toptoolbarpinned" : 0,
		"righttoolbarpinned" : 0,
		"bottomtoolbarpinned" : 0,
		"toolbars_unpinned_last_save" : 0,
		"tallnewobj" : 0,
		"boxanimatetime" : 200,
		"enablehscroll" : 1,
		"enablevscroll" : 1,
		"devicewidth" : 0.0,
		"description" : "",
		"digest" : "",
		"tags" : "",
		"style" : "",
		"subpatcher_template" : "",
		"assistshowspatchername" : 0,
		"boxes" : [ 			{
				"box" : 				{
					"bgcolor" : [ 0.150562509894371, 0.150562509894371, 0.150562509894371, 1.0 ],
					"fontface" : 1,
					"fontname" : "Arial",
					"fontsize" : 16.0,
					"id" : "obj-100",
					"maxclass" : "comment",
					"numinlets" : 1,
					"numoutlets" : 0,
					"patching_rect" : [ 156.431102209091478, -77.0, 411.0, 24.0 ],
					"presentation_linecount" : 2,
					"text" : "Can you tell what changing these knobs do? ",
					"textcolor" : [ 1.0, 1.0, 1.0, 1.0 ]
				}

			}
, 			{
				"box" : 				{
					"bgcolor" : [ 0.150562509894371, 0.150562509894371, 0.150562509894371, 1.0 ],
					"fontface" : 1,
					"fontname" : "Arial",
					"fontsize" : 16.0,
					"id" : "obj-99",
					"linecount" : 5,
					"maxclass" : "comment",
					"numinlets" : 1,
					"numoutlets" : 0,
					"patching_rect" : [ -306.0, 130.166662000000088, 328.0, 96.0 ],
					"text" : "This is a pretty involved patch. What aspects of it were you able to unpack? There are several effects, but the main point of the patch is to enable an \"envelope-based\" ",
					"textcolor" : [ 1.0, 1.0, 1.0, 1.0 ]
				}

			}
, 			{
				"box" : 				{
					"bgcolor" : [ 0.150562509894371, 0.150562509894371, 0.150562509894371, 1.0 ],
					"fontface" : 1,
					"fontname" : "Arial",
					"fontsize" : 16.0,
					"id" : "obj-98",
					"linecount" : 3,
					"maxclass" : "comment",
					"numinlets" : 1,
					"numoutlets" : 0,
					"patching_rect" : [ -283.0, 279.166662000000088, 289.0, 60.0 ],
					"text" : "might be a good idea to encapsulate all of this, and/or include in the presentation window.",
					"textcolor" : [ 1.0, 1.0, 1.0, 1.0 ]
				}

			}
, 			{
				"box" : 				{
					"bgcolor" : [ 0.150562509894371, 0.150562509894371, 0.150562509894371, 1.0 ],
					"fontface" : 1,
					"fontname" : "Arial",
					"fontsize" : 16.0,
					"id" : "obj-91",
					"linecount" : 3,
					"maxclass" : "comment",
					"numinlets" : 1,
					"numoutlets" : 0,
					"patching_rect" : [ 458.0, 392.166662000000088, 245.0, 60.0 ],
					"text" : "This is a cool effect based on modulating the amplitude of a signal, called ring modulation. ",
					"textcolor" : [ 1.0, 1.0, 1.0, 1.0 ]
				}

			}
, 			{
				"box" : 				{
					"bgcolor" : [ 0.150562509894371, 0.150562509894371, 0.150562509894371, 1.0 ],
					"fontface" : 1,
					"fontname" : "Arial",
					"fontsize" : 16.0,
					"id" : "obj-64",
					"linecount" : 3,
					"maxclass" : "comment",
					"numinlets" : 1,
					"numoutlets" : 0,
					"patching_rect" : [ -306.0, -9.0, 276.0, 60.0 ],
					"text" : "Alican: This is a really cool sounding patch! where are your comments? ",
					"textcolor" : [ 1.0, 1.0, 1.0, 1.0 ]
				}

			}
, 			{
				"box" : 				{
					"bgcolor" : [ 0.325490196078431, 0.0, 0.545098039215686, 1.0 ],
					"fontface" : 0,
					"fontname" : "Ableton Sans Medium",
					"fontsize" : 12.0,
					"id" : "obj-97",
					"linecount" : 3,
					"maxclass" : "comment",
					"numinlets" : 1,
					"numoutlets" : 0,
					"patching_rect" : [ 811.690541745853466, 785.055786475717696, 146.0, 50.0 ],
					"text" : "a cool visualization of the effects, as if they were sliders!",
					"textcolor" : [ 1.0, 1.0, 1.0, 1.0 ],
					"textjustification" : 1
				}

			}
, 			{
				"box" : 				{
					"bgcolor" : [ 0.325490196078431, 0.0, 0.545098039215686, 1.0 ],
					"fontface" : 0,
					"fontname" : "Ableton Sans Medium",
					"fontsize" : 12.0,
					"id" : "obj-96",
					"linecount" : 2,
					"maxclass" : "comment",
					"numinlets" : 1,
					"numoutlets" : 0,
					"patching_rect" : [ 142.675662159187596, 373.166662000000088, 145.78558730754844, 35.0 ],
					"text" : "my added synth replacement",
					"textcolor" : [ 1.0, 1.0, 1.0, 1.0 ],
					"textjustification" : 1
				}

			}
, 			{
				"box" : 				{
					"id" : "obj-65",
					"maxclass" : "message",
					"numinlets" : 2,
					"numoutlets" : 1,
					"outlettype" : [ "" ],
					"patching_rect" : [ -56.0, 696.889124475717608, 29.5, 22.0 ],
					"text" : "75"
				}

			}
, 			{
				"box" : 				{
					"id" : "obj-67",
					"maxclass" : "message",
					"numinlets" : 2,
					"numoutlets" : 1,
					"outlettype" : [ "" ],
					"patching_rect" : [ -96.0, 696.889124475717608, 29.5, 22.0 ],
					"text" : "71"
				}

			}
, 			{
				"box" : 				{
					"id" : "obj-79",
					"maxclass" : "message",
					"numinlets" : 2,
					"numoutlets" : 1,
					"outlettype" : [ "" ],
					"patching_rect" : [ -139.0, 696.889124475717608, 29.5, 22.0 ],
					"text" : "68"
				}

			}
, 			{
				"box" : 				{
					"id" : "obj-80",
					"maxclass" : "message",
					"numinlets" : 2,
					"numoutlets" : 1,
					"outlettype" : [ "" ],
					"patching_rect" : [ -174.5, 696.889124475717608, 29.5, 22.0 ],
					"text" : "64"
				}

			}
, 			{
				"box" : 				{
					"id" : "obj-81",
					"maxclass" : "newobj",
					"numinlets" : 5,
					"numoutlets" : 5,
					"outlettype" : [ "bang", "bang", "bang", "bang", "" ],
					"patching_rect" : [ -176.457778252363141, 659.729203999042511, 64.0, 22.0 ],
					"text" : "sel 1 2 3 4"
				}

			}
, 			{
				"box" : 				{
					"id" : "obj-82",
					"maxclass" : "comment",
					"numinlets" : 1,
					"numoutlets" : 0,
					"patching_rect" : [ -186.957778252363141, 493.0, 88.0, 20.0 ],
					"text" : "pick randomly"
				}

			}
, 			{
				"box" : 				{
					"id" : "obj-83",
					"maxclass" : "number",
					"numinlets" : 1,
					"numoutlets" : 2,
					"outlettype" : [ "", "bang" ],
					"parameter_enable" : 0,
					"patching_rect" : [ -136.957778252363141, 370.0, 50.0, 22.0 ]
				}

			}
, 			{
				"box" : 				{
					"id" : "obj-84",
					"maxclass" : "newobj",
					"numinlets" : 1,
					"numoutlets" : 2,
					"outlettype" : [ "bang", "int" ],
					"patching_rect" : [ -186.957778252363141, 602.494316637516022, 29.5, 22.0 ],
					"text" : "t b i"
				}

			}
, 			{
				"box" : 				{
					"id" : "obj-85",
					"maxclass" : "newobj",
					"numinlets" : 2,
					"numoutlets" : 1,
					"outlettype" : [ "signal" ],
					"patching_rect" : [ -175.608965221643416, 855.64790815114975, 29.5, 22.0 ],
					"text" : "*~"
				}

			}
, 			{
				"box" : 				{
					"id" : "obj-86",
					"maxclass" : "message",
					"numinlets" : 2,
					"numoutlets" : 1,
					"outlettype" : [ "" ],
					"patching_rect" : [ -291.0, 749.889124475717608, 89.0, 22.0 ],
					"text" : "0, 0.8 10 0 240"
				}

			}
, 			{
				"box" : 				{
					"id" : "obj-87",
					"maxclass" : "newobj",
					"numinlets" : 2,
					"numoutlets" : 2,
					"outlettype" : [ "signal", "bang" ],
					"patching_rect" : [ -291.0, 789.889124475717608, 34.0, 22.0 ],
					"text" : "line~"
				}

			}
, 			{
				"box" : 				{
					"id" : "obj-88",
					"maxclass" : "toggle",
					"numinlets" : 1,
					"numoutlets" : 1,
					"outlettype" : [ "int" ],
					"parameter_enable" : 0,
					"patching_rect" : [ -186.957778252363141, 370.0, 24.0, 24.0 ]
				}

			}
, 			{
				"box" : 				{
					"id" : "obj-89",
					"maxclass" : "newobj",
					"numinlets" : 2,
					"numoutlets" : 1,
					"outlettype" : [ "bang" ],
					"patching_rect" : [ -186.957778252363141, 413.0, 63.0, 22.0 ],
					"text" : "metro 500"
				}

			}
, 			{
				"box" : 				{
					"id" : "obj-90",
					"maxclass" : "newobj",
					"numinlets" : 1,
					"numoutlets" : 1,
					"outlettype" : [ "" ],
					"patching_rect" : [ -175.608965221643416, 778.045783659219751, 32.0, 22.0 ],
					"text" : "mtof"
				}

			}
, 			{
				"box" : 				{
					"id" : "obj-92",
					"maxclass" : "newobj",
					"numinlets" : 2,
					"numoutlets" : 1,
					"outlettype" : [ "signal" ],
					"patching_rect" : [ -175.608965221643416, 807.889124475717608, 43.0, 22.0 ],
					"text" : "cycle~"
				}

			}
, 			{
				"box" : 				{
					"id" : "obj-93",
					"maxclass" : "newobj",
					"numinlets" : 2,
					"numoutlets" : 1,
					"outlettype" : [ "int" ],
					"patching_rect" : [ -186.957778252363141, 553.660513273477591, 29.5, 22.0 ],
					"text" : "+ 1"
				}

			}
, 			{
				"box" : 				{
					"id" : "obj-94",
					"maxclass" : "button",
					"numinlets" : 1,
					"numoutlets" : 1,
					"outlettype" : [ "bang" ],
					"parameter_enable" : 0,
					"patching_rect" : [ -186.957778252363141, 447.542455554008484, 24.0, 24.0 ]
				}

			}
, 			{
				"box" : 				{
					"id" : "obj-95",
					"maxclass" : "newobj",
					"numinlets" : 5,
					"numoutlets" : 4,
					"outlettype" : [ "int", "", "", "int" ],
					"patching_rect" : [ -186.957778252363141, 519.249519646167755, 79.0, 22.0 ],
					"text" : "counter 1 1 4"
				}

			}
, 			{
				"box" : 				{
					"bgmode" : 0,
					"border" : 0,
					"clickthrough" : 0,
					"enablehscroll" : 0,
					"enablevscroll" : 0,
					"extract" : 1,
					"id" : "obj-63",
					"lockeddragscroll" : 0,
					"lockedsize" : 0,
					"maxclass" : "bpatcher",
					"name" : "bp.Recordr.maxpat",
					"numinlets" : 2,
					"numoutlets" : 0,
					"offset" : [ 0.0, 0.0 ],
					"patching_rect" : [ 682.058334559202194, 973.0, 372.0, 116.0 ],
					"varname" : "bp.Recordr",
					"viewvisibility" : 1
				}

			}
, 			{
				"box" : 				{
					"id" : "obj-62",
					"maxclass" : "gain~",
					"multichannelvariant" : 0,
					"numinlets" : 1,
					"numoutlets" : 2,
					"outlettype" : [ "signal", "" ],
					"parameter_enable" : 0,
					"patching_rect" : [ 17.0, 900.0, 22.0, 140.0 ]
				}

			}
, 			{
				"box" : 				{
					"id" : "obj-68",
					"maxclass" : "message",
					"numinlets" : 2,
					"numoutlets" : 1,
					"outlettype" : [ "" ],
					"patching_rect" : [ 276.888880461454619, 697.055786475717696, 29.5, 22.0 ],
					"text" : "75"
				}

			}
, 			{
				"box" : 				{
					"id" : "obj-69",
					"maxclass" : "message",
					"numinlets" : 2,
					"numoutlets" : 1,
					"outlettype" : [ "" ],
					"patching_rect" : [ 236.888880461454619, 697.055786475717696, 29.5, 22.0 ],
					"text" : "71"
				}

			}
, 			{
				"box" : 				{
					"id" : "obj-5",
					"maxclass" : "message",
					"numinlets" : 2,
					"numoutlets" : 1,
					"outlettype" : [ "" ],
					"patching_rect" : [ 193.888880461454619, 697.055786475717696, 29.5, 22.0 ],
					"text" : "68"
				}

			}
, 			{
				"box" : 				{
					"id" : "obj-71",
					"maxclass" : "message",
					"numinlets" : 2,
					"numoutlets" : 1,
					"outlettype" : [ "" ],
					"patching_rect" : [ 158.388880461454619, 697.055786475717696, 29.5, 22.0 ],
					"text" : "64"
				}

			}
, 			{
				"box" : 				{
					"id" : "obj-72",
					"maxclass" : "newobj",
					"numinlets" : 5,
					"numoutlets" : 5,
					"outlettype" : [ "bang", "bang", "bang", "bang", "" ],
					"patching_rect" : [ 156.431102209091478, 659.895865999042599, 64.0, 22.0 ],
					"text" : "sel 1 2 3 4"
				}

			}
, 			{
				"box" : 				{
					"id" : "obj-73",
					"maxclass" : "newobj",
					"numinlets" : 1,
					"numoutlets" : 2,
					"outlettype" : [ "bang", "int" ],
					"patching_rect" : [ 131.779915239810975, 602.660978637516109, 29.5, 22.0 ],
					"text" : "t b i"
				}

			}
, 			{
				"box" : 				{
					"id" : "obj-74",
					"maxclass" : "newobj",
					"numinlets" : 2,
					"numoutlets" : 1,
					"outlettype" : [ "signal" ],
					"patching_rect" : [ 157.279915239811089, 855.814570151149837, 29.5, 22.0 ],
					"text" : "*~"
				}

			}
, 			{
				"box" : 				{
					"id" : "obj-75",
					"maxclass" : "message",
					"numinlets" : 2,
					"numoutlets" : 1,
					"outlettype" : [ "" ],
					"patching_rect" : [ 41.888880461454619, 750.055786475717696, 89.0, 22.0 ],
					"text" : "0, 0.8 10 0 240"
				}

			}
, 			{
				"box" : 				{
					"id" : "obj-8",
					"maxclass" : "newobj",
					"numinlets" : 2,
					"numoutlets" : 2,
					"outlettype" : [ "signal", "bang" ],
					"patching_rect" : [ 39.888880461454619, 785.055786475717696, 34.0, 22.0 ],
					"text" : "line~"
				}

			}
, 			{
				"box" : 				{
					"id" : "obj-9",
					"maxclass" : "newobj",
					"numinlets" : 1,
					"numoutlets" : 1,
					"outlettype" : [ "" ],
					"patching_rect" : [ 157.279915239811089, 778.212445659219838, 32.0, 22.0 ],
					"text" : "mtof"
				}

			}
, 			{
				"box" : 				{
					"id" : "obj-78",
					"maxclass" : "newobj",
					"numinlets" : 2,
					"numoutlets" : 1,
					"outlettype" : [ "signal" ],
					"patching_rect" : [ 157.279915239811089, 808.055786475717696, 43.0, 22.0 ],
					"text" : "cycle~"
				}

			}
, 			{
				"box" : 				{
					"id" : "obj-10",
					"maxclass" : "message",
					"numinlets" : 2,
					"numoutlets" : 1,
					"outlettype" : [ "" ],
					"patching_rect" : [ 92.0, 697.055786475717696, 29.5, 22.0 ],
					"text" : "75"
				}

			}
, 			{
				"box" : 				{
					"id" : "obj-12",
					"maxclass" : "message",
					"numinlets" : 2,
					"numoutlets" : 1,
					"outlettype" : [ "" ],
					"patching_rect" : [ 52.0, 697.055786475717696, 29.5, 22.0 ],
					"text" : "71"
				}

			}
, 			{
				"box" : 				{
					"id" : "obj-13",
					"maxclass" : "message",
					"numinlets" : 2,
					"numoutlets" : 1,
					"outlettype" : [ "" ],
					"patching_rect" : [ 9.0, 697.055786475717696, 29.5, 22.0 ],
					"text" : "68"
				}

			}
, 			{
				"box" : 				{
					"id" : "obj-17",
					"maxclass" : "message",
					"numinlets" : 2,
					"numoutlets" : 1,
					"outlettype" : [ "" ],
					"patching_rect" : [ -26.5, 697.055786475717696, 29.5, 22.0 ],
					"text" : "64"
				}

			}
, 			{
				"box" : 				{
					"id" : "obj-20",
					"maxclass" : "newobj",
					"numinlets" : 5,
					"numoutlets" : 5,
					"outlettype" : [ "bang", "bang", "bang", "bang", "" ],
					"patching_rect" : [ -28.457778252363141, 659.895865999042599, 64.0, 22.0 ],
					"text" : "sel 1 2 3 4"
				}

			}
, 			{
				"box" : 				{
					"id" : "obj-18",
					"maxclass" : "comment",
					"numinlets" : 1,
					"numoutlets" : 0,
					"patching_rect" : [ 131.779915239810975, 499.166662000000088, 55.0, 20.0 ],
					"text" : "arp. up"
				}

			}
, 			{
				"box" : 				{
					"id" : "obj-31",
					"maxclass" : "comment",
					"numinlets" : 1,
					"numoutlets" : 0,
					"patching_rect" : [ -38.957778252363141, 493.166662000000088, 88.0, 20.0 ],
					"text" : "pick randomly"
				}

			}
, 			{
				"box" : 				{
					"id" : "obj-54",
					"maxclass" : "number",
					"numinlets" : 1,
					"numoutlets" : 2,
					"outlettype" : [ "", "bang" ],
					"parameter_enable" : 0,
					"patching_rect" : [ 131.779915239810975, 559.827175273477678, 50.0, 22.0 ]
				}

			}
, 			{
				"box" : 				{
					"id" : "obj-55",
					"maxclass" : "newobj",
					"numinlets" : 5,
					"numoutlets" : 4,
					"outlettype" : [ "int", "", "", "int" ],
					"patching_rect" : [ 131.779915239810975, 525.416181646167843, 69.0, 22.0 ],
					"text" : "counter 1 4"
				}

			}
, 			{
				"box" : 				{
					"id" : "obj-35",
					"maxclass" : "number",
					"numinlets" : 1,
					"numoutlets" : 2,
					"outlettype" : [ "", "bang" ],
					"parameter_enable" : 0,
					"patching_rect" : [ 11.042221747636859, 370.166662000000088, 50.0, 22.0 ]
				}

			}
, 			{
				"box" : 				{
					"id" : "obj-36",
					"maxclass" : "newobj",
					"numinlets" : 1,
					"numoutlets" : 2,
					"outlettype" : [ "bang", "int" ],
					"patching_rect" : [ -38.957778252363141, 602.660978637516109, 29.5, 22.0 ],
					"text" : "t b i"
				}

			}
, 			{
				"box" : 				{
					"id" : "obj-37",
					"maxclass" : "newobj",
					"numinlets" : 2,
					"numoutlets" : 1,
					"outlettype" : [ "signal" ],
					"patching_rect" : [ -27.608965221643416, 855.814570151149837, 29.5, 22.0 ],
					"text" : "*~"
				}

			}
, 			{
				"box" : 				{
					"id" : "obj-38",
					"maxclass" : "message",
					"numinlets" : 2,
					"numoutlets" : 1,
					"outlettype" : [ "" ],
					"patching_rect" : [ -79.0, 750.055786475717696, 89.0, 22.0 ],
					"text" : "0, 0.8 10 0 240"
				}

			}
, 			{
				"box" : 				{
					"id" : "obj-42",
					"maxclass" : "newobj",
					"numinlets" : 2,
					"numoutlets" : 2,
					"outlettype" : [ "signal", "bang" ],
					"patching_rect" : [ -79.0, 785.055786475717696, 34.0, 22.0 ],
					"text" : "line~"
				}

			}
, 			{
				"box" : 				{
					"id" : "obj-47",
					"maxclass" : "toggle",
					"numinlets" : 1,
					"numoutlets" : 1,
					"outlettype" : [ "int" ],
					"parameter_enable" : 0,
					"patching_rect" : [ -38.957778252363141, 370.166662000000088, 24.0, 24.0 ]
				}

			}
, 			{
				"box" : 				{
					"id" : "obj-51",
					"maxclass" : "newobj",
					"numinlets" : 2,
					"numoutlets" : 1,
					"outlettype" : [ "bang" ],
					"patching_rect" : [ -38.957778252363141, 413.166662000000088, 69.0, 22.0 ],
					"text" : "metro 1000"
				}

			}
, 			{
				"box" : 				{
					"id" : "obj-52",
					"maxclass" : "newobj",
					"numinlets" : 1,
					"numoutlets" : 1,
					"outlettype" : [ "" ],
					"patching_rect" : [ -27.608965221643416, 778.212445659219838, 32.0, 22.0 ],
					"text" : "mtof"
				}

			}
, 			{
				"box" : 				{
					"id" : "obj-53",
					"maxclass" : "newobj",
					"numinlets" : 2,
					"numoutlets" : 1,
					"outlettype" : [ "signal" ],
					"patching_rect" : [ -27.608965221643416, 808.055786475717696, 43.0, 22.0 ],
					"text" : "cycle~"
				}

			}
, 			{
				"box" : 				{
					"id" : "obj-56",
					"maxclass" : "newobj",
					"numinlets" : 2,
					"numoutlets" : 1,
					"outlettype" : [ "int" ],
					"patching_rect" : [ -38.957778252363141, 553.827175273477678, 29.5, 22.0 ],
					"text" : "+ 1"
				}

			}
, 			{
				"box" : 				{
					"id" : "obj-58",
					"maxclass" : "button",
					"numinlets" : 1,
					"numoutlets" : 1,
					"outlettype" : [ "bang" ],
					"parameter_enable" : 0,
					"patching_rect" : [ -38.957778252363141, 447.709117554008571, 24.0, 24.0 ]
				}

			}
, 			{
				"box" : 				{
					"id" : "obj-60",
					"maxclass" : "newobj",
					"numinlets" : 2,
					"numoutlets" : 1,
					"outlettype" : [ "int" ],
					"patching_rect" : [ -38.957778252363141, 519.416181646167843, 59.0, 22.0 ],
					"text" : "random 4"
				}

			}
, 			{
				"box" : 				{
					"bgcolor" : [ 0.150562509894371, 0.150562509894371, 0.150562509894371, 1.0 ],
					"fontface" : 0,
					"fontname" : "Ableton Sans Light",
					"fontsize" : 12.0,
					"id" : "obj-34",
					"linecount" : 2,
					"maxclass" : "comment",
					"numinlets" : 1,
					"numoutlets" : 0,
					"patching_rect" : [ 429.60720634622578, 643.0, 142.0, 35.0 ],
					"presentation" : 1,
					"presentation_linecount" : 2,
					"presentation_rect" : [ 106.408166444758194, 222.947675720542065, 127.0, 35.0 ],
					"text" : "enable post-crossfade transient delay",
					"textcolor" : [ 1.0, 1.0, 1.0, 1.0 ],
					"textjustification" : 1
				}

			}
, 			{
				"box" : 				{
					"bgcolor" : [ 0.150562509894371, 0.150562509894371, 0.150562509894371, 1.0 ],
					"id" : "obj-32",
					"maxclass" : "toggle",
					"numinlets" : 1,
					"numoutlets" : 1,
					"outlettype" : [ "int" ],
					"parameter_enable" : 1,
					"patching_rect" : [ 401.0, 643.0, 24.0, 24.0 ],
					"presentation" : 1,
					"presentation_rect" : [ 62.800960098532414, 222.947675720542065, 35.0, 35.0 ],
					"saved_attribute_attributes" : 					{
						"valueof" : 						{
							"parameter_enum" : [ "off", "on" ],
							"parameter_initial" : [ 1.0 ],
							"parameter_initial_enable" : 1,
							"parameter_longname" : "enable simple delay",
							"parameter_mmax" : 1,
							"parameter_shortname" : "enable simple delay",
							"parameter_type" : 2
						}

					}
,
					"varname" : "enable simple delay"
				}

			}
, 			{
				"box" : 				{
					"id" : "obj-27",
					"maxclass" : "newobj",
					"numinlets" : 2,
					"numoutlets" : 1,
					"outlettype" : [ "signal" ],
					"patching_rect" : [ 519.0, 685.0, 39.0, 22.0 ],
					"text" : "gate~"
				}

			}
, 			{
				"box" : 				{
					"id" : "obj-24",
					"maxclass" : "newobj",
					"numinlets" : 2,
					"numoutlets" : 1,
					"outlettype" : [ "signal" ],
					"patching_rect" : [ 439.0, 685.0, 39.0, 22.0 ],
					"text" : "gate~"
				}

			}
, 			{
				"box" : 				{
					"id" : "obj-22",
					"maxclass" : "newobj",
					"numinlets" : 2,
					"numoutlets" : 2,
					"outlettype" : [ "signal", "signal" ],
					"patcher" : 					{
						"fileversion" : 1,
						"appversion" : 						{
							"major" : 8,
							"minor" : 5,
							"revision" : 3,
							"architecture" : "x64",
							"modernui" : 1
						}
,
						"classnamespace" : "box",
						"rect" : [ 429.0, 216.0, 640.0, 480.0 ],
						"bglocked" : 0,
						"openinpresentation" : 0,
						"default_fontsize" : 12.0,
						"default_fontface" : 0,
						"default_fontname" : "Arial",
						"gridonopen" : 1,
						"gridsize" : [ 15.0, 15.0 ],
						"gridsnaponopen" : 1,
						"objectsnaponopen" : 1,
						"statusbarvisible" : 2,
						"toolbarvisible" : 1,
						"lefttoolbarpinned" : 0,
						"toptoolbarpinned" : 0,
						"righttoolbarpinned" : 0,
						"bottomtoolbarpinned" : 0,
						"toolbars_unpinned_last_save" : 0,
						"tallnewobj" : 0,
						"boxanimatetime" : 200,
						"enablehscroll" : 1,
						"enablevscroll" : 1,
						"devicewidth" : 0.0,
						"description" : "",
						"digest" : "",
						"tags" : "",
						"style" : "",
						"subpatcher_template" : "",
						"assistshowspatchername" : 0,
						"boxes" : [ 							{
								"box" : 								{
									"id" : "obj-34",
									"maxclass" : "newobj",
									"numinlets" : 2,
									"numoutlets" : 2,
									"outlettype" : [ "signal", "signal" ],
									"patching_rect" : [ 215.508998333675663, 104.0, 68.0, 22.0 ],
									"text" : "cross~ 201"
								}

							}
, 							{
								"box" : 								{
									"id" : "obj-33",
									"maxclass" : "newobj",
									"numinlets" : 2,
									"numoutlets" : 2,
									"outlettype" : [ "signal", "signal" ],
									"patching_rect" : [ 52.0, 104.0, 68.0, 22.0 ],
									"text" : "cross~ 199"
								}

							}
, 							{
								"box" : 								{
									"id" : "obj-30",
									"maxclass" : "comment",
									"numinlets" : 1,
									"numoutlets" : 0,
									"patching_rect" : [ 248.0, 341.0, 133.0, 20.0 ],
									"text" : "sidechain compression"
								}

							}
, 							{
								"box" : 								{
									"id" : "obj-28",
									"maxclass" : "newobj",
									"numinlets" : 2,
									"numoutlets" : 1,
									"outlettype" : [ "signal" ],
									"patching_rect" : [ 383.0, 47.999999624999987, 68.0, 22.0 ],
									"text" : "maximum~"
								}

							}
, 							{
								"box" : 								{
									"id" : "obj-27",
									"maxclass" : "newobj",
									"numinlets" : 2,
									"numoutlets" : 1,
									"outlettype" : [ "signal" ],
									"patching_rect" : [ 384.0, 195.999999874999986, 47.0, 22.0 ],
									"text" : "*~ 0.25"
								}

							}
, 							{
								"box" : 								{
									"id" : "obj-26",
									"maxclass" : "newobj",
									"numinlets" : 2,
									"numoutlets" : 1,
									"outlettype" : [ "signal" ],
									"patching_rect" : [ 360.0, 232.999999937499979, 43.0, 22.0 ],
									"text" : "cycle~"
								}

							}
, 							{
								"box" : 								{
									"id" : "obj-25",
									"maxclass" : "newobj",
									"numinlets" : 2,
									"numoutlets" : 1,
									"outlettype" : [ "signal" ],
									"patching_rect" : [ 382.0, 84.999999687499994, 30.0, 22.0 ],
									"text" : "*~ 4"
								}

							}
, 							{
								"box" : 								{
									"floatoutput" : 1,
									"id" : "obj-23",
									"maxclass" : "slider",
									"numinlets" : 1,
									"numoutlets" : 1,
									"outlettype" : [ "" ],
									"parameter_enable" : 0,
									"patching_rect" : [ 383.0, 311.0, 20.0, 140.0 ],
									"size" : 1.0
								}

							}
, 							{
								"box" : 								{
									"id" : "obj-15",
									"maxclass" : "newobj",
									"numinlets" : 2,
									"numoutlets" : 1,
									"outlettype" : [ "signal" ],
									"patching_rect" : [ 215.0, 252.978515625, 40.0, 22.0 ],
									"text" : "*~ 0.7"
								}

							}
, 							{
								"box" : 								{
									"id" : "obj-16",
									"maxclass" : "newobj",
									"numinlets" : 2,
									"numoutlets" : 1,
									"outlettype" : [ "signal" ],
									"patching_rect" : [ 51.491001666324337, 252.978515625, 40.0, 22.0 ],
									"text" : "*~ 0.7"
								}

							}
, 							{
								"box" : 								{
									"id" : "obj-14",
									"maxclass" : "newobj",
									"numinlets" : 2,
									"numoutlets" : 1,
									"outlettype" : [ "float" ],
									"patching_rect" : [ 383.0, 270.0, 82.0, 22.0 ],
									"text" : "peakamp~ 17"
								}

							}
, 							{
								"box" : 								{
									"id" : "obj-5",
									"maxclass" : "newobj",
									"numinlets" : 1,
									"numoutlets" : 1,
									"outlettype" : [ "signal" ],
									"patching_rect" : [ 383.0, 121.999999750000001, 35.0, 22.0 ],
									"text" : "abs~"
								}

							}
, 							{
								"box" : 								{
									"id" : "obj-4",
									"maxclass" : "newobj",
									"numinlets" : 2,
									"numoutlets" : 1,
									"outlettype" : [ "signal" ],
									"patching_rect" : [ 50.0, 341.0, 29.5, 22.0 ],
									"text" : "*~"
								}

							}
, 							{
								"box" : 								{
									"id" : "obj-2",
									"maxclass" : "newobj",
									"numinlets" : 3,
									"numoutlets" : 1,
									"outlettype" : [ "signal" ],
									"patching_rect" : [ 383.0, 157.999999812499993, 100.0, 22.0 ],
									"text" : "slide~ 500 20000"
								}

							}
, 							{
								"box" : 								{
									"id" : "obj-1",
									"maxclass" : "newobj",
									"numinlets" : 2,
									"numoutlets" : 1,
									"outlettype" : [ "signal" ],
									"patching_rect" : [ 215.0, 341.0, 29.5, 22.0 ],
									"text" : "*~"
								}

							}
, 							{
								"box" : 								{
									"id" : "obj-8",
									"maxclass" : "newobj",
									"numinlets" : 2,
									"numoutlets" : 1,
									"outlettype" : [ "signal" ],
									"patching_rect" : [ 313.0, 175.978515625, 40.0, 22.0 ],
									"text" : "*~ 0.7"
								}

							}
, 							{
								"box" : 								{
									"fontname" : "Arial",
									"fontsize" : 12.0,
									"id" : "obj-36",
									"maxclass" : "newobj",
									"numinlets" : 1,
									"numoutlets" : 1,
									"outlettype" : [ "signal" ],
									"patching_rect" : [ 215.0, 203.978515625, 72.0, 22.0 ],
									"text" : "tapout~ 501"
								}

							}
, 							{
								"box" : 								{
									"fontname" : "Arial",
									"fontsize" : 12.0,
									"id" : "obj-37",
									"maxclass" : "newobj",
									"numinlets" : 1,
									"numoutlets" : 1,
									"outlettype" : [ "tapconnect" ],
									"patching_rect" : [ 215.0, 147.978515625, 74.0, 22.0 ],
									"text" : "tapin~ 1000"
								}

							}
, 							{
								"box" : 								{
									"id" : "obj-10",
									"maxclass" : "newobj",
									"numinlets" : 2,
									"numoutlets" : 1,
									"outlettype" : [ "signal" ],
									"patching_rect" : [ 151.491001666324337, 178.978515625, 40.0, 22.0 ],
									"text" : "*~ 0.7"
								}

							}
, 							{
								"box" : 								{
									"fontname" : "Arial",
									"fontsize" : 12.0,
									"id" : "obj-12",
									"maxclass" : "newobj",
									"numinlets" : 1,
									"numoutlets" : 1,
									"outlettype" : [ "signal" ],
									"patching_rect" : [ 51.491001666324337, 203.978515625, 72.0, 22.0 ],
									"text" : "tapout~ 499"
								}

							}
, 							{
								"box" : 								{
									"fontname" : "Arial",
									"fontsize" : 12.0,
									"id" : "obj-13",
									"maxclass" : "newobj",
									"numinlets" : 1,
									"numoutlets" : 1,
									"outlettype" : [ "tapconnect" ],
									"patching_rect" : [ 51.491001666324337, 147.978515625, 74.0, 22.0 ],
									"text" : "tapin~ 1000"
								}

							}
, 							{
								"box" : 								{
									"comment" : "",
									"id" : "obj-9",
									"index" : 1,
									"maxclass" : "inlet",
									"numinlets" : 0,
									"numoutlets" : 1,
									"outlettype" : [ "signal" ],
									"patching_rect" : [ 52.0, 29.999999687500008, 30.0, 30.0 ]
								}

							}
, 							{
								"box" : 								{
									"comment" : "",
									"id" : "obj-17",
									"index" : 2,
									"maxclass" : "inlet",
									"numinlets" : 0,
									"numoutlets" : 1,
									"outlettype" : [ "signal" ],
									"patching_rect" : [ 215.508998333675663, 47.999999687500008, 30.0, 30.0 ]
								}

							}
, 							{
								"box" : 								{
									"comment" : "",
									"id" : "obj-18",
									"index" : 1,
									"maxclass" : "outlet",
									"numinlets" : 1,
									"numoutlets" : 0,
									"patching_rect" : [ 50.0, 407.798827624999944, 30.0, 30.0 ]
								}

							}
, 							{
								"box" : 								{
									"comment" : "",
									"id" : "obj-20",
									"index" : 2,
									"maxclass" : "outlet",
									"numinlets" : 1,
									"numoutlets" : 0,
									"patching_rect" : [ 213.508994999999999, 407.798827624999944, 30.0, 30.0 ]
								}

							}
 ],
						"lines" : [ 							{
								"patchline" : 								{
									"destination" : [ "obj-20", 0 ],
									"source" : [ "obj-1", 0 ]
								}

							}
, 							{
								"patchline" : 								{
									"destination" : [ "obj-13", 0 ],
									"source" : [ "obj-10", 0 ]
								}

							}
, 							{
								"patchline" : 								{
									"destination" : [ "obj-10", 0 ],
									"order" : 0,
									"source" : [ "obj-12", 0 ]
								}

							}
, 							{
								"patchline" : 								{
									"destination" : [ "obj-16", 0 ],
									"order" : 1,
									"source" : [ "obj-12", 0 ]
								}

							}
, 							{
								"patchline" : 								{
									"destination" : [ "obj-12", 0 ],
									"source" : [ "obj-13", 0 ]
								}

							}
, 							{
								"patchline" : 								{
									"destination" : [ "obj-23", 0 ],
									"source" : [ "obj-14", 0 ]
								}

							}
, 							{
								"patchline" : 								{
									"destination" : [ "obj-1", 0 ],
									"source" : [ "obj-15", 0 ]
								}

							}
, 							{
								"patchline" : 								{
									"destination" : [ "obj-4", 0 ],
									"source" : [ "obj-16", 0 ]
								}

							}
, 							{
								"patchline" : 								{
									"destination" : [ "obj-28", 1 ],
									"order" : 0,
									"source" : [ "obj-17", 0 ]
								}

							}
, 							{
								"patchline" : 								{
									"destination" : [ "obj-34", 0 ],
									"order" : 1,
									"source" : [ "obj-17", 0 ]
								}

							}
, 							{
								"patchline" : 								{
									"destination" : [ "obj-27", 0 ],
									"source" : [ "obj-2", 0 ]
								}

							}
, 							{
								"patchline" : 								{
									"destination" : [ "obj-5", 0 ],
									"source" : [ "obj-25", 0 ]
								}

							}
, 							{
								"patchline" : 								{
									"destination" : [ "obj-1", 1 ],
									"order" : 1,
									"source" : [ "obj-26", 0 ]
								}

							}
, 							{
								"patchline" : 								{
									"destination" : [ "obj-14", 0 ],
									"order" : 0,
									"source" : [ "obj-26", 0 ]
								}

							}
, 							{
								"patchline" : 								{
									"destination" : [ "obj-4", 1 ],
									"order" : 2,
									"source" : [ "obj-26", 0 ]
								}

							}
, 							{
								"patchline" : 								{
									"destination" : [ "obj-26", 1 ],
									"source" : [ "obj-27", 0 ]
								}

							}
, 							{
								"patchline" : 								{
									"destination" : [ "obj-25", 0 ],
									"source" : [ "obj-28", 0 ]
								}

							}
, 							{
								"patchline" : 								{
									"destination" : [ "obj-13", 0 ],
									"source" : [ "obj-33", 1 ]
								}

							}
, 							{
								"patchline" : 								{
									"destination" : [ "obj-37", 0 ],
									"source" : [ "obj-34", 1 ]
								}

							}
, 							{
								"patchline" : 								{
									"destination" : [ "obj-15", 0 ],
									"order" : 1,
									"source" : [ "obj-36", 0 ]
								}

							}
, 							{
								"patchline" : 								{
									"destination" : [ "obj-8", 0 ],
									"order" : 0,
									"source" : [ "obj-36", 0 ]
								}

							}
, 							{
								"patchline" : 								{
									"destination" : [ "obj-36", 0 ],
									"source" : [ "obj-37", 0 ]
								}

							}
, 							{
								"patchline" : 								{
									"destination" : [ "obj-18", 0 ],
									"source" : [ "obj-4", 0 ]
								}

							}
, 							{
								"patchline" : 								{
									"destination" : [ "obj-2", 0 ],
									"source" : [ "obj-5", 0 ]
								}

							}
, 							{
								"patchline" : 								{
									"destination" : [ "obj-37", 0 ],
									"source" : [ "obj-8", 0 ]
								}

							}
, 							{
								"patchline" : 								{
									"destination" : [ "obj-28", 0 ],
									"order" : 0,
									"source" : [ "obj-9", 0 ]
								}

							}
, 							{
								"patchline" : 								{
									"destination" : [ "obj-33", 0 ],
									"order" : 1,
									"source" : [ "obj-9", 0 ]
								}

							}
 ]
					}
,
					"patching_rect" : [ 458.0, 613.021483999999987, 89.0, 22.0 ],
					"saved_object_attributes" : 					{
						"description" : "",
						"digest" : "",
						"globalpatchername" : "",
						"tags" : ""
					}
,
					"text" : "p simple_delay"
				}

			}
, 			{
				"box" : 				{
					"id" : "obj-29",
					"maxclass" : "comment",
					"numinlets" : 1,
					"numoutlets" : 0,
					"patching_rect" : [ -301.5, 558.0, 49.0, 20.0 ],
					"text" : "wet/dry"
				}

			}
, 			{
				"box" : 				{
					"floatoutput" : 1,
					"id" : "obj-7",
					"maxclass" : "dial",
					"mult" : 0.01,
					"numinlets" : 1,
					"numoutlets" : 1,
					"outlettype" : [ "float" ],
					"parameter_enable" : 0,
					"patching_rect" : [ -297.0, 589.0, 40.0, 40.0 ],
					"size" : 100.0
				}

			}
, 			{
				"box" : 				{
					"bgcolor" : [ 0.150562509894371, 0.150562509894371, 0.150562509894371, 1.0 ],
					"fontface" : 0,
					"fontname" : "Ableton Sans Light",
					"fontsize" : 16.0,
					"id" : "obj-6",
					"linecount" : 10,
					"maxclass" : "comment",
					"numinlets" : 1,
					"numoutlets" : 0,
					"patching_rect" : [ 1006.523877145481151, 334.0, 293.0, 199.0 ],
					"presentation" : 1,
					"presentation_linecount" : 10,
					"presentation_rect" : [ 22.491860950150226, 17.491509366037008, 261.0, 199.0 ],
					"text" : "This patch uses an envelope to crossfade between two signals.\n\nIn this example, we use the envelope of a mono synth to crossfade between its mono dry sound, and a stereo ring-mod effect.\n\nWe also place a delay effect on the resulting post-crossfade transient.",
					"textcolor" : [ 1.0, 1.0, 1.0, 1.0 ]
				}

			}
, 			{
				"box" : 				{
					"bgcolor" : [ 0.150562509894371, 0.150562509894371, 0.150562509894371, 1.0 ],
					"fontface" : 0,
					"fontname" : "Ableton Sans Medium",
					"fontsize" : 12.0,
					"id" : "obj-223",
					"maxclass" : "comment",
					"numinlets" : 1,
					"numoutlets" : 0,
					"patching_rect" : [ 340.458334559202285, 760.711432813844226, 120.68380097061879, 21.0 ],
					"presentation" : 1,
					"presentation_rect" : [ 83.467990003552131, 279.013014270735766, 117.0, 21.0 ],
					"text" : "main output volume",
					"textcolor" : [ 1.0, 1.0, 1.0, 1.0 ],
					"textjustification" : 2
				}

			}
, 			{
				"box" : 				{
					"bgcolor" : [ 0.325490196078431, 0.0, 0.545098039215686, 1.0 ],
					"fontface" : 0,
					"fontname" : "Ableton Sans Light",
					"fontsize" : 12.0,
					"id" : "obj-222",
					"linecount" : 2,
					"maxclass" : "comment",
					"numinlets" : 1,
					"numoutlets" : 0,
					"patching_rect" : [ 1006.523877145481151, -29.675155234335307, 168.0, 35.0 ],
					"presentation" : 1,
					"presentation_linecount" : 2,
					"presentation_rect" : [ 658.491860950150226, 355.329182855909949, 95.0, 35.0 ],
					"text" : "the crossfade's easing function",
					"textcolor" : [ 1.0, 1.0, 1.0, 1.0 ]
				}

			}
, 			{
				"box" : 				{
					"bgcolor" : [ 0.325490196078431, 0.0, 0.545098039215686, 1.0 ],
					"fontface" : 0,
					"fontname" : "Ableton Sans Light",
					"fontsize" : 12.0,
					"id" : "obj-221",
					"linecount" : 8,
					"maxclass" : "comment",
					"numinlets" : 1,
					"numoutlets" : 0,
					"patching_rect" : [ 1295.166670799255371, -86.788567186155746, 120.0, 122.0 ],
					"presentation" : 1,
					"presentation_linecount" : 4,
					"presentation_rect" : [ 395.147616147863687, 420.829182855909949, 218.0, 64.0 ],
					"text" : "interpolates between a linear crossfade (best for signals that are similar) and a constant-power crossfade (best for signals that are dissimilar)",
					"textcolor" : [ 1.0, 1.0, 1.0, 1.0 ]
				}

			}
, 			{
				"box" : 				{
					"bgcolor" : [ 0.325490196078431, 0.0, 0.545098039215686, 1.0 ],
					"fontface" : 0,
					"fontname" : "Ableton Sans Light",
					"fontsize" : 12.0,
					"id" : "obj-220",
					"linecount" : 2,
					"maxclass" : "comment",
					"numinlets" : 1,
					"numoutlets" : 0,
					"patching_rect" : [ 1154.857869828636467, 0.211432813844254, 118.0, 35.0 ],
					"presentation" : 1,
					"presentation_linecount" : 2,
					"presentation_rect" : [ 389.230945348608316, 156.134091197980752, 107.0, 35.0 ],
					"text" : "adjust the volume of the envelope",
					"textcolor" : [ 1.0, 1.0, 1.0, 1.0 ],
					"textjustification" : 2
				}

			}
, 			{
				"box" : 				{
					"bgcolor" : [ 0.325490196078431, 0.0, 0.545098039215686, 1.0 ],
					"fontface" : 0,
					"fontname" : "Ableton Sans Light",
					"fontsize" : 12.0,
					"id" : "obj-219",
					"linecount" : 4,
					"maxclass" : "comment",
					"numinlets" : 1,
					"numoutlets" : 0,
					"patching_rect" : [ 19.384654603924446, -22.288567186155746, 155.0, 64.0 ],
					"presentation" : 1,
					"presentation_linecount" : 3,
					"presentation_rect" : [ 389.636849733611655, 78.820506675419438, 167.0, 50.0 ],
					"text" : "connect this to an expression pedal to scale the crossfade's position on the envelope >",
					"textcolor" : [ 1.0, 1.0, 1.0, 1.0 ],
					"textjustification" : 2
				}

			}
, 			{
				"box" : 				{
					"bgcolor" : [ 0.325490196078431, 0.0, 0.545098039215686, 1.0 ],
					"fontface" : 0,
					"fontname" : "Ableton Sans Light",
					"fontsize" : 12.0,
					"id" : "obj-218",
					"linecount" : 5,
					"maxclass" : "comment",
					"numinlets" : 1,
					"numoutlets" : 0,
					"patching_rect" : [ 194.542754118614994, -41.288567186155746, 124.0, 79.0 ],
					"presentation" : 1,
					"presentation_linecount" : 3,
					"presentation_rect" : [ 658.491860950150226, 292.141013350838875, 183.0, 50.0 ],
					"text" : "these are the low and high points on the envelope at which the crossfade begins and ends",
					"textcolor" : [ 1.0, 1.0, 1.0, 1.0 ]
				}

			}
, 			{
				"box" : 				{
					"bgcolor" : [ 0.325490196078431, 0.0, 0.545098039215686, 1.0 ],
					"fontface" : 0,
					"fontname" : "Ableton Sans Light",
					"fontsize" : 12.0,
					"id" : "obj-217",
					"linecount" : 4,
					"maxclass" : "comment",
					"numinlets" : 1,
					"numoutlets" : 0,
					"patching_rect" : [ 373.542754118614994, -12.288567186155746, 117.0, 64.0 ],
					"presentation" : 1,
					"presentation_linecount" : 4,
					"presentation_rect" : [ 395.147616147863687, 305.761260243103379, 117.0, 64.0 ],
					"text" : "lookahead adds latency to help prevent clicks from sharp attacks",
					"textcolor" : [ 1.0, 1.0, 1.0, 1.0 ]
				}

			}
, 			{
				"box" : 				{
					"bgcolor" : [ 0.325490196078431, 0.0, 0.545098039215686, 1.0 ],
					"fontface" : 0,
					"fontname" : "Ableton Sans Light",
					"fontsize" : 12.0,
					"id" : "obj-216",
					"linecount" : 2,
					"maxclass" : "comment",
					"numinlets" : 1,
					"numoutlets" : 0,
					"patching_rect" : [ 577.491860950150226, 6.711432813844254, 118.0, 35.0 ],
					"presentation" : 1,
					"presentation_linecount" : 2,
					"presentation_rect" : [ 324.230945348608316, 218.447675720542065, 105.0, 35.0 ],
					"text" : "adjust envelope's attack and decay",
					"textcolor" : [ 1.0, 1.0, 1.0, 1.0 ],
					"textjustification" : 2
				}

			}
, 			{
				"box" : 				{
					"bgcolor" : [ 0.325490196078431, 0.0, 0.545098039215686, 1.0 ],
					"fontface" : 0,
					"fontname" : "Ableton Sans Medium",
					"fontsize" : 12.0,
					"id" : "obj-215",
					"maxclass" : "comment",
					"numinlets" : 1,
					"numoutlets" : 0,
					"patching_rect" : [ 340.675662159187596, 290.166662000000088, 145.78558730754844, 21.0 ],
					"text" : "example synth & effect",
					"textcolor" : [ 1.0, 1.0, 1.0, 1.0 ],
					"textjustification" : 1
				}

			}
, 			{
				"box" : 				{
					"bgcolor" : [ 0.325490196078431, 0.0, 0.545098039215686, 1.0 ],
					"fontface" : 0,
					"fontname" : "Ableton Sans Light",
					"fontsize" : 12.0,
					"id" : "obj-214",
					"linecount" : 2,
					"maxclass" : "comment",
					"numinlets" : 1,
					"numoutlets" : 0,
					"patching_rect" : [ 837.844446639220223, 75.324844765664693, 120.0, 35.0 ],
					"presentation" : 1,
					"presentation_linecount" : 2,
					"presentation_rect" : [ 708.147616147863687, 172.261260243103379, 120.0, 35.0 ],
					"text" : "inverts the direction of the crossfade",
					"textcolor" : [ 1.0, 1.0, 1.0, 1.0 ]
				}

			}
, 			{
				"box" : 				{
					"bgcolor" : [ 0.325490196078431, 0.0, 0.545098039215686, 1.0 ],
					"fontface" : 0,
					"fontname" : "Ableton Sans Light",
					"fontsize" : 12.0,
					"id" : "obj-213",
					"linecount" : 2,
					"maxclass" : "comment",
					"numinlets" : 1,
					"numoutlets" : 0,
					"patching_rect" : [ 853.058334559202194, 164.0, 201.0, 35.0 ],
					"presentation" : 1,
					"presentation_linecount" : 2,
					"presentation_rect" : [ 708.147616147863687, 222.947675720542065, 201.0, 35.0 ],
					"text" : "limits the envelope to the ceiling, which allows it to decay more quickly",
					"textcolor" : [ 1.0, 1.0, 1.0, 1.0 ]
				}

			}
, 			{
				"box" : 				{
					"bgcolor" : [ 0.269390165805817, 0.153347119688988, 0.447736620903015, 1.0 ],
					"checkedcolor" : [ 1.0, 0.968627450980392, 0.0, 1.0 ],
					"id" : "obj-211",
					"maxclass" : "toggle",
					"numinlets" : 1,
					"numoutlets" : 1,
					"outlettype" : [ "int" ],
					"parameter_enable" : 1,
					"patching_rect" : [ 795.416670799255371, 160.824844765664693, 40.0, 40.0 ],
					"presentation" : 1,
					"presentation_rect" : [ 657.553371345577148, 222.947675720542065, 34.0, 34.0 ],
					"saved_attribute_attributes" : 					{
						"valueof" : 						{
							"parameter_enum" : [ "off", "on" ],
							"parameter_initial" : [ 1.0 ],
							"parameter_initial_enable" : 1,
							"parameter_longname" : "toggle[1]",
							"parameter_mmax" : 1,
							"parameter_shortname" : "toggle",
							"parameter_type" : 2
						}

					}
,
					"varname" : "invert[1]"
				}

			}
, 			{
				"box" : 				{
					"id" : "obj-212",
					"maxclass" : "newobj",
					"numinlets" : 1,
					"numoutlets" : 1,
					"outlettype" : [ "" ],
					"patching_rect" : [ 795.416670799255371, 212.0, 100.0, 22.0 ],
					"text" : "prepend env_clip"
				}

			}
, 			{
				"box" : 				{
					"id" : "obj-209",
					"maxclass" : "newobj",
					"numinlets" : 2,
					"numoutlets" : 1,
					"outlettype" : [ "float" ],
					"patching_rect" : [ 1123.658340364694595, 577.964337810833513, 82.0, 22.0 ],
					"text" : "peakamp~ 17"
				}

			}
, 			{
				"box" : 				{
					"bgcolor" : [ 0.152941176470588, 0.0, 0.396078431372549, 0.0 ],
					"elementcolor" : [ 0.686274509803922, 0.686274509803922, 0.686274509803922, 0.0 ],
					"floatoutput" : 1,
					"id" : "obj-208",
					"ignoreclick" : 1,
					"knobcolor" : [ 1.0, 0.0, 0.0, 0.82 ],
					"maxclass" : "slider",
					"numinlets" : 1,
					"numoutlets" : 1,
					"outlettype" : [ "" ],
					"parameter_enable" : 0,
					"patching_rect" : [ 1123.658340364694595, 609.0, 20.0, 140.0 ],
					"presentation" : 1,
					"presentation_rect" : [ 555.781838517073083, 141.984661341207584, 10.0, 140.0 ],
					"size" : 1.0
				}

			}
, 			{
				"box" : 				{
					"id" : "obj-207",
					"maxclass" : "newobj",
					"numinlets" : 1,
					"numoutlets" : 1,
					"outlettype" : [ "" ],
					"patching_rect" : [ 559.0, 872.0, 81.0, 22.0 ],
					"text" : "loadmess -36"
				}

			}
, 			{
				"box" : 				{
					"id" : "obj-203",
					"maxclass" : "newobj",
					"numinlets" : 2,
					"numoutlets" : 2,
					"outlettype" : [ "signal", "signal" ],
					"patcher" : 					{
						"fileversion" : 1,
						"appversion" : 						{
							"major" : 8,
							"minor" : 5,
							"revision" : 3,
							"architecture" : "x64",
							"modernui" : 1
						}
,
						"classnamespace" : "box",
						"rect" : [ 277.0, 188.0, 640.0, 480.0 ],
						"bglocked" : 0,
						"openinpresentation" : 0,
						"default_fontsize" : 12.0,
						"default_fontface" : 0,
						"default_fontname" : "Arial",
						"gridonopen" : 1,
						"gridsize" : [ 15.0, 15.0 ],
						"gridsnaponopen" : 1,
						"objectsnaponopen" : 1,
						"statusbarvisible" : 2,
						"toolbarvisible" : 1,
						"lefttoolbarpinned" : 0,
						"toptoolbarpinned" : 0,
						"righttoolbarpinned" : 0,
						"bottomtoolbarpinned" : 0,
						"toolbars_unpinned_last_save" : 0,
						"tallnewobj" : 0,
						"boxanimatetime" : 200,
						"enablehscroll" : 1,
						"enablevscroll" : 1,
						"devicewidth" : 0.0,
						"description" : "",
						"digest" : "",
						"tags" : "",
						"style" : "",
						"subpatcher_template" : "",
						"assistshowspatchername" : 0,
						"boxes" : [ 							{
								"box" : 								{
									"comment" : "",
									"id" : "obj-1",
									"index" : 2,
									"maxclass" : "inlet",
									"numinlets" : 0,
									"numoutlets" : 1,
									"outlettype" : [ "signal" ],
									"patching_rect" : [ 486.166673797593148, 292.000000737858727, 30.0, 30.0 ]
								}

							}
, 							{
								"box" : 								{
									"id" : "obj-6",
									"maxclass" : "comment",
									"numinlets" : 1,
									"numoutlets" : 0,
									"patching_rect" : [ 260.0, 418.0, 230.0, 20.0 ],
									"text" : "RNBO guitar pedals package > ring mod"
								}

							}
, 							{
								"box" : 								{
									"id" : "obj-4",
									"maxclass" : "newobj",
									"numinlets" : 2,
									"numoutlets" : 1,
									"outlettype" : [ "signal" ],
									"patching_rect" : [ 49.0, 417.0, 40.0, 22.0 ],
									"text" : "*~ 1.1"
								}

							}
, 							{
								"box" : 								{
									"id" : "obj-3",
									"maxclass" : "newobj",
									"numinlets" : 2,
									"numoutlets" : 1,
									"outlettype" : [ "signal" ],
									"patching_rect" : [ 216.333323299884796, 417.0, 40.0, 22.0 ],
									"text" : "*~ 1.1"
								}

							}
, 							{
								"box" : 								{
									"id" : "obj-177",
									"maxclass" : "newobj",
									"numinlets" : 2,
									"numoutlets" : 1,
									"outlettype" : [ "signal" ],
									"patching_rect" : [ 216.333323299884796, 113.509745947556439, 49.0, 22.0 ],
									"text" : "+~ 0.05"
								}

							}
, 							{
								"box" : 								{
									"id" : "obj-176",
									"maxclass" : "newobj",
									"numinlets" : 3,
									"numoutlets" : 1,
									"outlettype" : [ "signal" ],
									"patching_rect" : [ 216.333323299884796, 153.119981592455588, 92.0, 22.0 ],
									"text" : "pong~ wrap 0 1"
								}

							}
, 							{
								"box" : 								{
									"id" : "obj-171",
									"maxclass" : "newobj",
									"numinlets" : 6,
									"numoutlets" : 1,
									"outlettype" : [ "signal" ],
									"patching_rect" : [ 216.333323299884796, 271.950688527153034, 150.0, 22.0 ],
									"text" : "scale~ 0. 100. 1. 10000. 3."
								}

							}
, 							{
								"box" : 								{
									"id" : "obj-172",
									"maxclass" : "newobj",
									"numinlets" : 2,
									"numoutlets" : 1,
									"outlettype" : [ "signal" ],
									"patching_rect" : [ 216.333323299884796, 351.171159816951331, 29.0, 22.0 ],
									"text" : "*~"
								}

							}
, 							{
								"box" : 								{
									"id" : "obj-173",
									"maxclass" : "newobj",
									"numinlets" : 2,
									"numoutlets" : 1,
									"outlettype" : [ "signal" ],
									"patching_rect" : [ 216.333323299884796, 311.560924172052182, 43.0, 22.0 ],
									"text" : "cycle~"
								}

							}
, 							{
								"box" : 								{
									"id" : "obj-174",
									"maxclass" : "newobj",
									"numinlets" : 6,
									"numoutlets" : 1,
									"outlettype" : [ "signal" ],
									"patching_rect" : [ 216.333323299884796, 232.340452882253885, 94.0, 22.0 ],
									"text" : "scale~ -1 1 6 30"
								}

							}
, 							{
								"box" : 								{
									"id" : "obj-175",
									"maxclass" : "newobj",
									"numinlets" : 2,
									"numoutlets" : 1,
									"outlettype" : [ "signal" ],
									"patching_rect" : [ 216.333323299884796, 192.730217237354736, 75.0, 22.0 ],
									"text" : "triangle~ 0.5"
								}

							}
, 							{
								"box" : 								{
									"id" : "obj-89",
									"maxclass" : "newobj",
									"numinlets" : 2,
									"numoutlets" : 1,
									"outlettype" : [ "signal" ],
									"patching_rect" : [ 75.798664079873106, 100.0, 79.0, 22.0 ],
									"text" : "phasor~ 0.03"
								}

							}
, 							{
								"box" : 								{
									"id" : "obj-20",
									"maxclass" : "newobj",
									"numinlets" : 6,
									"numoutlets" : 1,
									"outlettype" : [ "signal" ],
									"patching_rect" : [ 50.0, 281.224030954983391, 150.0, 22.0 ],
									"text" : "scale~ 0. 100. 1. 10000. 3."
								}

							}
, 							{
								"box" : 								{
									"id" : "obj-78",
									"maxclass" : "newobj",
									"numinlets" : 2,
									"numoutlets" : 1,
									"outlettype" : [ "signal" ],
									"patching_rect" : [ 50.0, 361.151163153096149, 29.0, 22.0 ],
									"text" : "*~"
								}

							}
, 							{
								"box" : 								{
									"id" : "obj-7",
									"maxclass" : "newobj",
									"numinlets" : 2,
									"numoutlets" : 1,
									"outlettype" : [ "signal" ],
									"patching_rect" : [ 50.0, 321.18759705403977, 43.0, 22.0 ],
									"text" : "cycle~"
								}

							}
, 							{
								"box" : 								{
									"id" : "obj-74",
									"maxclass" : "newobj",
									"numinlets" : 6,
									"numoutlets" : 1,
									"outlettype" : [ "signal" ],
									"patching_rect" : [ 50.0, 241.260464855927012, 94.0, 22.0 ],
									"text" : "scale~ -1 1 6 30"
								}

							}
, 							{
								"box" : 								{
									"id" : "obj-72",
									"maxclass" : "newobj",
									"numinlets" : 2,
									"numoutlets" : 1,
									"outlettype" : [ "signal" ],
									"patching_rect" : [ 50.0, 201.296898756870632, 75.0, 22.0 ],
									"text" : "triangle~ 0.5"
								}

							}
, 							{
								"box" : 								{
									"comment" : "",
									"id" : "obj-200",
									"index" : 1,
									"maxclass" : "inlet",
									"numinlets" : 0,
									"numoutlets" : 1,
									"outlettype" : [ "signal" ],
									"patching_rect" : [ 431.166673797593148, 292.000000737858727, 30.0, 30.0 ]
								}

							}
, 							{
								"box" : 								{
									"comment" : "",
									"id" : "obj-201",
									"index" : 1,
									"maxclass" : "outlet",
									"numinlets" : 1,
									"numoutlets" : 0,
									"patching_rect" : [ 49.999986797593124, 483.114685737858736, 30.0, 30.0 ]
								}

							}
, 							{
								"box" : 								{
									"comment" : "",
									"id" : "obj-202",
									"index" : 2,
									"maxclass" : "outlet",
									"numinlets" : 1,
									"numoutlets" : 0,
									"patching_rect" : [ 216.333299797593099, 483.114685737858736, 30.0, 30.0 ]
								}

							}
 ],
						"lines" : [ 							{
								"patchline" : 								{
									"destination" : [ "obj-172", 1 ],
									"source" : [ "obj-1", 0 ]
								}

							}
, 							{
								"patchline" : 								{
									"destination" : [ "obj-173", 0 ],
									"source" : [ "obj-171", 0 ]
								}

							}
, 							{
								"patchline" : 								{
									"destination" : [ "obj-3", 0 ],
									"source" : [ "obj-172", 0 ]
								}

							}
, 							{
								"patchline" : 								{
									"destination" : [ "obj-172", 0 ],
									"source" : [ "obj-173", 0 ]
								}

							}
, 							{
								"patchline" : 								{
									"destination" : [ "obj-171", 0 ],
									"source" : [ "obj-174", 0 ]
								}

							}
, 							{
								"patchline" : 								{
									"destination" : [ "obj-174", 0 ],
									"source" : [ "obj-175", 0 ]
								}

							}
, 							{
								"patchline" : 								{
									"destination" : [ "obj-175", 0 ],
									"source" : [ "obj-176", 0 ]
								}

							}
, 							{
								"patchline" : 								{
									"destination" : [ "obj-176", 0 ],
									"source" : [ "obj-177", 0 ]
								}

							}
, 							{
								"patchline" : 								{
									"destination" : [ "obj-7", 0 ],
									"source" : [ "obj-20", 0 ]
								}

							}
, 							{
								"patchline" : 								{
									"destination" : [ "obj-78", 1 ],
									"source" : [ "obj-200", 0 ]
								}

							}
, 							{
								"patchline" : 								{
									"destination" : [ "obj-202", 0 ],
									"source" : [ "obj-3", 0 ]
								}

							}
, 							{
								"patchline" : 								{
									"destination" : [ "obj-201", 0 ],
									"source" : [ "obj-4", 0 ]
								}

							}
, 							{
								"patchline" : 								{
									"destination" : [ "obj-78", 0 ],
									"source" : [ "obj-7", 0 ]
								}

							}
, 							{
								"patchline" : 								{
									"destination" : [ "obj-74", 0 ],
									"source" : [ "obj-72", 0 ]
								}

							}
, 							{
								"patchline" : 								{
									"destination" : [ "obj-20", 0 ],
									"source" : [ "obj-74", 0 ]
								}

							}
, 							{
								"patchline" : 								{
									"destination" : [ "obj-4", 0 ],
									"source" : [ "obj-78", 0 ]
								}

							}
, 							{
								"patchline" : 								{
									"destination" : [ "obj-177", 0 ],
									"order" : 0,
									"source" : [ "obj-89", 0 ]
								}

							}
, 							{
								"patchline" : 								{
									"destination" : [ "obj-72", 0 ],
									"order" : 1,
									"source" : [ "obj-89", 0 ]
								}

							}
 ]
					}
,
					"patching_rect" : [ 347.458334559202285, 417.823589726371665, 103.0, 22.0 ],
					"saved_object_attributes" : 					{
						"description" : "",
						"digest" : "",
						"globalpatchername" : "",
						"tags" : ""
					}
,
					"text" : "p stereo-ring-mod"
				}

			}
, 			{
				"box" : 				{
					"bgcolor" : [ 0.325490196078431, 0.0, 0.545098039215686, 1.0 ],
					"fontface" : 0,
					"fontname" : "Ableton Sans Medium",
					"fontsize" : 12.0,
					"id" : "obj-11",
					"maxclass" : "comment",
					"numinlets" : 1,
					"numoutlets" : 0,
					"patching_rect" : [ 584.631083491706931, 515.411628962697932, 281.78558730754844, 21.0 ],
					"text" : "FX signal / relatively dry signal / envelope",
					"textcolor" : [ 1.0, 1.0, 1.0, 1.0 ],
					"textjustification" : 1
				}

			}
, 			{
				"box" : 				{
					"id" : "obj-189",
					"lastchannelcount" : 0,
					"maxclass" : "live.gain~",
					"numinlets" : 2,
					"numoutlets" : 5,
					"outlettype" : [ "signal", "signal", "", "float", "list" ],
					"parameter_enable" : 1,
					"patching_rect" : [ 474.508998333675663, 755.333334565162659, 48.0, 136.0 ],
					"presentation" : 1,
					"presentation_rect" : [ 152.467990003552131, 289.824844765664693, 48.0, 203.0 ],
					"saved_attribute_attributes" : 					{
						"valueof" : 						{
							"parameter_longname" : "main",
							"parameter_mmax" : 0.0,
							"parameter_mmin" : -36.0,
							"parameter_shortname" : "main",
							"parameter_type" : 0,
							"parameter_unitstyle" : 4
						}

					}
,
					"varname" : "main"
				}

			}
, 			{
				"box" : 				{
					"id" : "obj-178",
					"maxclass" : "newobj",
					"numinlets" : 2,
					"numoutlets" : 1,
					"outlettype" : [ "signal" ],
					"patching_rect" : [ 640.458334559202285, 678.0, 39.833333333333371, 22.0 ],
					"text" : "+~"
				}

			}
, 			{
				"box" : 				{
					"id" : "obj-166",
					"maxclass" : "newobj",
					"numinlets" : 2,
					"numoutlets" : 1,
					"outlettype" : [ "signal" ],
					"patcher" : 					{
						"fileversion" : 1,
						"appversion" : 						{
							"major" : 8,
							"minor" : 5,
							"revision" : 3,
							"architecture" : "x64",
							"modernui" : 1
						}
,
						"classnamespace" : "dsp.gen",
						"rect" : [ 59.0, 106.0, 600.0, 450.0 ],
						"bglocked" : 0,
						"openinpresentation" : 0,
						"default_fontsize" : 12.0,
						"default_fontface" : 0,
						"default_fontname" : "Arial",
						"gridonopen" : 1,
						"gridsize" : [ 15.0, 15.0 ],
						"gridsnaponopen" : 1,
						"objectsnaponopen" : 1,
						"statusbarvisible" : 2,
						"toolbarvisible" : 1,
						"lefttoolbarpinned" : 0,
						"toptoolbarpinned" : 0,
						"righttoolbarpinned" : 0,
						"bottomtoolbarpinned" : 0,
						"toolbars_unpinned_last_save" : 0,
						"tallnewobj" : 0,
						"boxanimatetime" : 200,
						"enablehscroll" : 1,
						"enablevscroll" : 1,
						"devicewidth" : 0.0,
						"description" : "",
						"digest" : "",
						"tags" : "",
						"style" : "",
						"subpatcher_template" : "",
						"assistshowspatchername" : 0,
						"boxes" : [ 							{
								"box" : 								{
									"id" : "obj-1",
									"maxclass" : "newobj",
									"numinlets" : 0,
									"numoutlets" : 1,
									"outlettype" : [ "" ],
									"patching_rect" : [ 50.0, 14.0, 28.0, 22.0 ],
									"text" : "in 1"
								}

							}
, 							{
								"box" : 								{
									"id" : "obj-2",
									"maxclass" : "newobj",
									"numinlets" : 0,
									"numoutlets" : 1,
									"outlettype" : [ "" ],
									"patching_rect" : [ 305.0, 14.0, 28.0, 22.0 ],
									"text" : "in 2"
								}

							}
, 							{
								"box" : 								{
									"id" : "obj-3",
									"maxclass" : "newobj",
									"numinlets" : 2,
									"numoutlets" : 1,
									"outlettype" : [ "" ],
									"patching_rect" : [ 176.0, 149.0, 29.5, 22.0 ],
									"text" : "+"
								}

							}
, 							{
								"box" : 								{
									"id" : "obj-4",
									"maxclass" : "newobj",
									"numinlets" : 1,
									"numoutlets" : 0,
									"patching_rect" : [ 176.0, 418.0, 35.0, 22.0 ],
									"text" : "out 1"
								}

							}
 ],
						"lines" : [ 							{
								"patchline" : 								{
									"destination" : [ "obj-3", 0 ],
									"source" : [ "obj-1", 0 ]
								}

							}
, 							{
								"patchline" : 								{
									"destination" : [ "obj-3", 1 ],
									"source" : [ "obj-2", 0 ]
								}

							}
, 							{
								"patchline" : 								{
									"destination" : [ "obj-4", 0 ],
									"source" : [ "obj-3", 0 ]
								}

							}
 ]
					}
,
					"patching_rect" : [ 640.458334559202285, 541.744962693395337, 144.0, 22.0 ],
					"text" : "gen~ transient_crossfade"
				}

			}
, 			{
				"box" : 				{
					"activedialcolor" : [ 1.0, 0.968627450980392, 0.0, 1.0 ],
					"activefgdialcolor" : [ 0.269390165805817, 0.153347119688988, 0.447736620903015, 1.0 ],
					"activeneedlecolor" : [ 0.269390165805817, 0.153347119688988, 0.447736620903015, 1.0 ],
					"id" : "obj-76",
					"maxclass" : "live.dial",
					"numinlets" : 1,
					"numoutlets" : 2,
					"outlettype" : [ "", "float" ],
					"parameter_enable" : 1,
					"parameter_mappable" : 0,
					"patching_rect" : [ 536.477643767051177, 49.824844765664693, 65.0, 48.0 ],
					"presentation" : 1,
					"presentation_rect" : [ 431.230945348608316, 211.947675720542065, 65.0, 48.0 ],
					"saved_attribute_attributes" : 					{
						"activedialcolor" : 						{
							"expression" : ""
						}
,
						"activefgdialcolor" : 						{
							"expression" : ""
						}
,
						"activeneedlecolor" : 						{
							"expression" : ""
						}
,
						"textcolor" : 						{
							"expression" : ""
						}
,
						"valueof" : 						{
							"parameter_exponent" : 2.0,
							"parameter_initial" : [ 0.0 ],
							"parameter_initial_enable" : 1,
							"parameter_longname" : "env attack",
							"parameter_mmax" : 20.0,
							"parameter_shortname" : "env attack",
							"parameter_type" : 0,
							"parameter_unitstyle" : 2
						}

					}
,
					"textcolor" : [ 1.0, 0.984313725490196, 0.56078431372549, 1.0 ],
					"varname" : "env attack"
				}

			}
, 			{
				"box" : 				{
					"id" : "obj-77",
					"maxclass" : "newobj",
					"numinlets" : 1,
					"numoutlets" : 1,
					"outlettype" : [ "" ],
					"patching_rect" : [ 536.384654603924446, 126.0, 88.0, 22.0 ],
					"text" : "prepend attack"
				}

			}
, 			{
				"box" : 				{
					"id" : "obj-70",
					"linecount" : 6,
					"maxclass" : "message",
					"numinlets" : 2,
					"numoutlets" : 1,
					"outlettype" : [ "" ],
					"patching_rect" : [ 1423.375005358457656, 26.376513434970235, 117.0, 89.0 ],
					"text" : ";\rmax launchbrowser https://dsp.stackexchange.com/questions/14754/equal-power-crossfade"
				}

			}
, 			{
				"box" : 				{
					"id" : "obj-57",
					"maxclass" : "newobj",
					"numinlets" : 2,
					"numoutlets" : 1,
					"outlettype" : [ "signal" ],
					"patching_rect" : [ 319.458334559202285, 675.0, 39.833333333333314, 22.0 ],
					"text" : "+~"
				}

			}
, 			{
				"box" : 				{
					"activedialcolor" : [ 1.0, 0.968627450980392, 0.0, 1.0 ],
					"activefgdialcolor" : [ 0.269390165805817, 0.153347119688988, 0.447736620903015, 1.0 ],
					"activeneedlecolor" : [ 0.269390165805817, 0.153347119688988, 0.447736620903015, 1.0 ],
					"id" : "obj-16",
					"maxclass" : "live.dial",
					"numinlets" : 1,
					"numoutlets" : 2,
					"outlettype" : [ "", "float" ],
					"parameter_enable" : 1,
					"parameter_mappable" : 0,
					"patching_rect" : [ 401.384654603924446, 57.824844765664693, 65.0, 48.0 ],
					"presentation" : 1,
					"presentation_rect" : [ 329.053371345577148, 313.761260243103379, 65.0, 48.0 ],
					"saved_attribute_attributes" : 					{
						"activedialcolor" : 						{
							"expression" : ""
						}
,
						"activefgdialcolor" : 						{
							"expression" : ""
						}
,
						"activeneedlecolor" : 						{
							"expression" : ""
						}
,
						"textcolor" : 						{
							"expression" : ""
						}
,
						"valueof" : 						{
							"parameter_exponent" : 2.0,
							"parameter_initial" : [ 10.956661913323831 ],
							"parameter_initial_enable" : 1,
							"parameter_longname" : "lookahead",
							"parameter_mmax" : 20.0,
							"parameter_shortname" : "lookahead",
							"parameter_type" : 0,
							"parameter_unitstyle" : 2
						}

					}
,
					"textcolor" : [ 1.0, 0.984313725490196, 0.56078431372549, 1.0 ],
					"varname" : "lookahead"
				}

			}
, 			{
				"box" : 				{
					"id" : "obj-15",
					"maxclass" : "newobj",
					"numinlets" : 1,
					"numoutlets" : 1,
					"outlettype" : [ "" ],
					"patching_rect" : [ 401.384654603924446, 126.0, 102.0, 22.0 ],
					"text" : "prepend predelay"
				}

			}
, 			{
				"box" : 				{
					"bgcolor" : [ 0.150562509894371, 0.150562509894371, 0.150562509894371, 1.0 ],
					"id" : "obj-14",
					"maxclass" : "ezdac~",
					"numinlets" : 2,
					"numoutlets" : 0,
					"patching_rect" : [ 462.083336353301888, 917.972263464765774, 51.517989991631339, 51.517989991631339 ],
					"presentation" : 1,
					"presentation_rect" : [ 83.80131920429676, 317.162512056654577, 66.666670799255371, 66.666670799255371 ]
				}

			}
, 			{
				"box" : 				{
					"id" : "obj-50",
					"maxclass" : "newobj",
					"numinlets" : 0,
					"numoutlets" : 1,
					"outlettype" : [ "" ],
					"patching_rect" : [ 169.175650417072575, 453.000000059604645, 137.0, 22.0 ],
					"text" : "r transient_split_params"
				}

			}
, 			{
				"box" : 				{
					"id" : "obj-49",
					"maxclass" : "newobj",
					"numinlets" : 1,
					"numoutlets" : 0,
					"patching_rect" : [ 162.175650417072575, 250.0, 139.0, 22.0 ],
					"text" : "s transient_split_params"
				}

			}
, 			{
				"box" : 				{
					"bgcolor" : [ 0.269390165805817, 0.153347119688988, 0.447736620903015, 1.0 ],
					"checkedcolor" : [ 1.0, 0.968627450980392, 0.0, 1.0 ],
					"id" : "obj-48",
					"maxclass" : "toggle",
					"numinlets" : 1,
					"numoutlets" : 1,
					"outlettype" : [ "int" ],
					"parameter_enable" : 1,
					"patching_rect" : [ 779.916665440797715, 72.824844765664693, 40.0, 40.0 ],
					"presentation" : 1,
					"presentation_rect" : [ 657.553371345577148, 172.261260243103379, 34.0, 34.0 ],
					"saved_attribute_attributes" : 					{
						"valueof" : 						{
							"parameter_enum" : [ "off", "on" ],
							"parameter_initial" : [ 0.0 ],
							"parameter_initial_enable" : 1,
							"parameter_longname" : "toggle",
							"parameter_mmax" : 1,
							"parameter_shortname" : "toggle",
							"parameter_type" : 2
						}

					}
,
					"varname" : "invert"
				}

			}
, 			{
				"box" : 				{
					"id" : "obj-46",
					"maxclass" : "newobj",
					"numinlets" : 1,
					"numoutlets" : 1,
					"outlettype" : [ "" ],
					"patching_rect" : [ 779.916665440797715, 126.0, 85.0, 22.0 ],
					"text" : "prepend invert"
				}

			}
, 			{
				"box" : 				{
					"activedialcolor" : [ 1.0, 0.968627450980392, 0.0, 1.0 ],
					"activefgdialcolor" : [ 0.269390165805817, 0.153347119688988, 0.447736620903015, 1.0 ],
					"activeneedlecolor" : [ 0.269390165805817, 0.153347119688988, 0.447736620903015, 1.0 ],
					"id" : "obj-44",
					"maxclass" : "live.dial",
					"numinlets" : 1,
					"numoutlets" : 2,
					"outlettype" : [ "", "float" ],
					"parameter_enable" : 1,
					"patching_rect" : [ 1299.666670799255371, 46.876513434970235, 115.0, 48.0 ],
					"presentation" : 1,
					"presentation_rect" : [ 289.069194210098317, 428.829182855909949, 100.15684387553074, 48.0 ],
					"saved_attribute_attributes" : 					{
						"activedialcolor" : 						{
							"expression" : ""
						}
,
						"activefgdialcolor" : 						{
							"expression" : ""
						}
,
						"activeneedlecolor" : 						{
							"expression" : ""
						}
,
						"textcolor" : 						{
							"expression" : ""
						}
,
						"valueof" : 						{
							"parameter_initial" : [ 50.0 ],
							"parameter_initial_enable" : 1,
							"parameter_longname" : "interpolate crossfades",
							"parameter_mmax" : 100.0,
							"parameter_shortname" : "interpolate crossfades",
							"parameter_type" : 0,
							"parameter_unitstyle" : 5
						}

					}
,
					"textcolor" : [ 1.0, 0.984313725490196, 0.56078431372549, 1.0 ],
					"varname" : "interpolate crossfades"
				}

			}
, 			{
				"box" : 				{
					"id" : "obj-43",
					"maxclass" : "newobj",
					"numinlets" : 1,
					"numoutlets" : 1,
					"outlettype" : [ "" ],
					"patching_rect" : [ 1299.666670799255371, 123.051668669305542, 177.0, 22.0 ],
					"text" : "prepend interpolate_crossfades"
				}

			}
, 			{
				"box" : 				{
					"id" : "obj-41",
					"maxclass" : "newobj",
					"numinlets" : 1,
					"numoutlets" : 1,
					"outlettype" : [ "" ],
					"patching_rect" : [ 175.509654603924446, 126.0, 87.0, 22.0 ],
					"text" : "prepend lo_val"
				}

			}
, 			{
				"box" : 				{
					"id" : "obj-40",
					"maxclass" : "newobj",
					"numinlets" : 1,
					"numoutlets" : 1,
					"outlettype" : [ "" ],
					"patching_rect" : [ 286.634654603924446, 126.0, 87.0, 22.0 ],
					"text" : "prepend hi_val"
				}

			}
, 			{
				"box" : 				{
					"activedialcolor" : [ 1.0, 0.968627450980392, 0.0, 1.0 ],
					"activefgdialcolor" : [ 0.269390165805817, 0.153347119688988, 0.447736620903015, 1.0 ],
					"activeneedlecolor" : [ 0.269390165805817, 0.153347119688988, 0.447736620903015, 1.0 ],
					"id" : "obj-39",
					"maxclass" : "live.dial",
					"numinlets" : 1,
					"numoutlets" : 2,
					"outlettype" : [ "", "float" ],
					"parameter_enable" : 1,
					"patching_rect" : [ 205.509654603924446, 43.0, 41.0, 48.0 ],
					"presentation" : 1,
					"presentation_rect" : [ 549.397616147863687, 292.141013350838875, 41.0, 48.0 ],
					"saved_attribute_attributes" : 					{
						"activedialcolor" : 						{
							"expression" : ""
						}
,
						"activefgdialcolor" : 						{
							"expression" : ""
						}
,
						"activeneedlecolor" : 						{
							"expression" : ""
						}
,
						"textcolor" : 						{
							"expression" : ""
						}
,
						"valueof" : 						{
							"parameter_initial" : [ 15.748031496062975 ],
							"parameter_initial_enable" : 1,
							"parameter_longname" : "floor",
							"parameter_mmax" : 100.0,
							"parameter_shortname" : "floor",
							"parameter_type" : 0,
							"parameter_unitstyle" : 5
						}

					}
,
					"textcolor" : [ 1.0, 0.984313725490196, 0.56078431372549, 1.0 ],
					"varname" : "floor"
				}

			}
, 			{
				"box" : 				{
					"activedialcolor" : [ 1.0, 0.968627450980392, 0.0, 1.0 ],
					"activefgdialcolor" : [ 0.269390165805817, 0.153347119688988, 0.447736620903015, 1.0 ],
					"activeneedlecolor" : [ 0.269390165805817, 0.153347119688988, 0.447736620903015, 1.0 ],
					"id" : "obj-33",
					"maxclass" : "live.dial",
					"numinlets" : 1,
					"numoutlets" : 2,
					"outlettype" : [ "", "float" ],
					"parameter_enable" : 1,
					"patching_rect" : [ 260.175650417072575, 43.0, 41.0, 48.0 ],
					"presentation" : 1,
					"presentation_rect" : [ 603.147616147863687, 292.141013350838875, 41.0, 48.0 ],
					"saved_attribute_attributes" : 					{
						"activedialcolor" : 						{
							"expression" : ""
						}
,
						"activefgdialcolor" : 						{
							"expression" : ""
						}
,
						"activeneedlecolor" : 						{
							"expression" : ""
						}
,
						"textcolor" : 						{
							"expression" : ""
						}
,
						"valueof" : 						{
							"parameter_initial" : [ 76.37795275590544 ],
							"parameter_initial_enable" : 1,
							"parameter_longname" : "ceiling",
							"parameter_mmax" : 100.0,
							"parameter_shortname" : "ceiling",
							"parameter_type" : 0,
							"parameter_unitstyle" : 5
						}

					}
,
					"textcolor" : [ 1.0, 0.984313725490196, 0.56078431372549, 1.0 ],
					"varname" : "ceiling"
				}

			}
, 			{
				"box" : 				{
					"activedialcolor" : [ 1.0, 0.968627450980392, 0.0, 1.0 ],
					"activefgdialcolor" : [ 0.269390165805817, 0.153347119688988, 0.447736620903015, 1.0 ],
					"activeneedlecolor" : [ 0.269390165805817, 0.153347119688988, 0.447736620903015, 1.0 ],
					"fontsize" : 16.0,
					"id" : "obj-28",
					"maxclass" : "live.dial",
					"numinlets" : 1,
					"numoutlets" : 2,
					"outlettype" : [ "", "float" ],
					"parameter_enable" : 1,
					"patching_rect" : [ 53.384654603924446, 50.0, 115.0, 64.0 ],
					"presentation" : 1,
					"presentation_rect" : [ 565.102673496488023, 71.820506675419438, 65.025000840425491, 64.0 ],
					"saved_attribute_attributes" : 					{
						"activedialcolor" : 						{
							"expression" : ""
						}
,
						"activefgdialcolor" : 						{
							"expression" : ""
						}
,
						"activeneedlecolor" : 						{
							"expression" : ""
						}
,
						"textcolor" : 						{
							"expression" : ""
						}
,
						"valueof" : 						{
							"parameter_initial" : [ 0 ],
							"parameter_initial_enable" : 1,
							"parameter_longname" : "exp pdl",
							"parameter_mmax" : 100.0,
							"parameter_mmin" : -100.0,
							"parameter_shortname" : "exp pdl",
							"parameter_type" : 0,
							"parameter_unitstyle" : 5
						}

					}
,
					"textcolor" : [ 1.0, 0.984313725490196, 0.56078431372549, 1.0 ],
					"varname" : "exp pdl"
				}

			}
, 			{
				"box" : 				{
					"id" : "obj-26",
					"maxclass" : "newobj",
					"numinlets" : 1,
					"numoutlets" : 1,
					"outlettype" : [ "" ],
					"patching_rect" : [ 53.384654603924446, 126.175155234335307, 98.0, 22.0 ],
					"text" : "prepend exp_pdl"
				}

			}
, 			{
				"box" : 				{
					"activedialcolor" : [ 1.0, 0.968627450980392, 0.0, 1.0 ],
					"activefgdialcolor" : [ 0.269390165805817, 0.153347119688988, 0.447736620903015, 1.0 ],
					"activeneedlecolor" : [ 0.269390165805817, 0.153347119688988, 0.447736620903015, 1.0 ],
					"id" : "obj-25",
					"maxclass" : "live.dial",
					"numinlets" : 1,
					"numoutlets" : 2,
					"outlettype" : [ "", "float" ],
					"parameter_enable" : 1,
					"parameter_mappable" : 0,
					"patching_rect" : [ 667.884654603924446, 49.824844765664693, 65.0, 48.0 ],
					"presentation" : 1,
					"presentation_rect" : [ 496.980945348608316, 211.947675720542065, 43.5, 48.0 ],
					"saved_attribute_attributes" : 					{
						"activedialcolor" : 						{
							"expression" : ""
						}
,
						"activefgdialcolor" : 						{
							"expression" : ""
						}
,
						"activeneedlecolor" : 						{
							"expression" : ""
						}
,
						"textcolor" : 						{
							"expression" : ""
						}
,
						"valueof" : 						{
							"parameter_exponent" : 2.0,
							"parameter_initial" : [ 193.393886787776466 ],
							"parameter_initial_enable" : 1,
							"parameter_longname" : "env decay",
							"parameter_mmax" : 3000.0,
							"parameter_mmin" : 50.0,
							"parameter_shortname" : "env decay",
							"parameter_type" : 0,
							"parameter_unitstyle" : 2
						}

					}
,
					"textcolor" : [ 1.0, 0.984313725490196, 0.56078431372549, 1.0 ],
					"varname" : "env decay"
				}

			}
, 			{
				"box" : 				{
					"id" : "obj-23",
					"maxclass" : "newobj",
					"numinlets" : 1,
					"numoutlets" : 1,
					"outlettype" : [ "" ],
					"patching_rect" : [ 667.791665440797715, 126.0, 88.0, 22.0 ],
					"text" : "prepend decay"
				}

			}
, 			{
				"box" : 				{
					"activedialcolor" : [ 1.0, 0.968627450980392, 0.0, 1.0 ],
					"activefgdialcolor" : [ 0.269390165805817, 0.153347119688988, 0.447736620903015, 1.0 ],
					"activeneedlecolor" : [ 0.269390165805817, 0.153347119688988, 0.447736620903015, 1.0 ],
					"id" : "obj-21",
					"maxclass" : "live.dial",
					"numinlets" : 1,
					"numoutlets" : 2,
					"outlettype" : [ "", "float" ],
					"parameter_enable" : 1,
					"parameter_mappable" : 0,
					"patching_rect" : [ 1168.541670799255371, 46.876513434970235, 41.0, 48.0 ],
					"presentation" : 1,
					"presentation_rect" : [ 502.886700546321777, 149.634091197980752, 41.0, 48.0 ],
					"saved_attribute_attributes" : 					{
						"activedialcolor" : 						{
							"expression" : ""
						}
,
						"activefgdialcolor" : 						{
							"expression" : ""
						}
,
						"activeneedlecolor" : 						{
							"expression" : ""
						}
,
						"textcolor" : 						{
							"expression" : ""
						}
,
						"valueof" : 						{
							"parameter_initial" : [ 6.0 ],
							"parameter_initial_enable" : 1,
							"parameter_longname" : "env gain",
							"parameter_mmax" : 24.0,
							"parameter_mmin" : -24.0,
							"parameter_shortname" : "env gain",
							"parameter_type" : 0,
							"parameter_unitstyle" : 4
						}

					}
,
					"textcolor" : [ 1.0, 0.984313725490196, 0.56078431372549, 1.0 ],
					"varname" : "env gain"
				}

			}
, 			{
				"box" : 				{
					"id" : "obj-19",
					"maxclass" : "newobj",
					"numinlets" : 1,
					"numoutlets" : 1,
					"outlettype" : [ "" ],
					"patching_rect" : [ 1168.541670799255371, 123.051668669305542, 107.0, 22.0 ],
					"text" : "prepend env_sens"
				}

			}
, 			{
				"box" : 				{
					"id" : "obj-3",
					"maxclass" : "newobj",
					"numinlets" : 2,
					"numoutlets" : 1,
					"outlettype" : [ "float" ],
					"patching_rect" : [ 927.630558719237797, 577.964337810833513, 81.0, 22.0 ],
					"text" : "snapshot~ 17"
				}

			}
, 			{
				"box" : 				{
					"id" : "obj-2",
					"maxclass" : "newobj",
					"numinlets" : 2,
					"numoutlets" : 1,
					"outlettype" : [ "float" ],
					"patching_rect" : [ 830.844446639220223, 577.964337810833513, 81.0, 22.0 ],
					"text" : "snapshot~ 17"
				}

			}
, 			{
				"box" : 				{
					"id" : "obj-1",
					"maxclass" : "newobj",
					"numinlets" : 2,
					"numoutlets" : 1,
					"outlettype" : [ "signal" ],
					"patcher" : 					{
						"fileversion" : 1,
						"appversion" : 						{
							"major" : 8,
							"minor" : 5,
							"revision" : 3,
							"architecture" : "x64",
							"modernui" : 1
						}
,
						"classnamespace" : "dsp.gen",
						"rect" : [ 59.0, 106.0, 600.0, 450.0 ],
						"bglocked" : 0,
						"openinpresentation" : 0,
						"default_fontsize" : 12.0,
						"default_fontface" : 0,
						"default_fontname" : "Arial",
						"gridonopen" : 1,
						"gridsize" : [ 15.0, 15.0 ],
						"gridsnaponopen" : 1,
						"objectsnaponopen" : 1,
						"statusbarvisible" : 2,
						"toolbarvisible" : 1,
						"lefttoolbarpinned" : 0,
						"toptoolbarpinned" : 0,
						"righttoolbarpinned" : 0,
						"bottomtoolbarpinned" : 0,
						"toolbars_unpinned_last_save" : 0,
						"tallnewobj" : 0,
						"boxanimatetime" : 200,
						"enablehscroll" : 1,
						"enablevscroll" : 1,
						"devicewidth" : 0.0,
						"description" : "",
						"digest" : "",
						"tags" : "",
						"style" : "",
						"subpatcher_template" : "",
						"assistshowspatchername" : 0,
						"boxes" : [ 							{
								"box" : 								{
									"id" : "obj-1",
									"maxclass" : "newobj",
									"numinlets" : 0,
									"numoutlets" : 1,
									"outlettype" : [ "" ],
									"patching_rect" : [ 50.0, 14.0, 28.0, 22.0 ],
									"text" : "in 1"
								}

							}
, 							{
								"box" : 								{
									"id" : "obj-2",
									"maxclass" : "newobj",
									"numinlets" : 0,
									"numoutlets" : 1,
									"outlettype" : [ "" ],
									"patching_rect" : [ 305.0, 14.0, 28.0, 22.0 ],
									"text" : "in 2"
								}

							}
, 							{
								"box" : 								{
									"id" : "obj-3",
									"maxclass" : "newobj",
									"numinlets" : 2,
									"numoutlets" : 1,
									"outlettype" : [ "" ],
									"patching_rect" : [ 176.0, 149.0, 29.5, 22.0 ],
									"text" : "+"
								}

							}
, 							{
								"box" : 								{
									"id" : "obj-4",
									"maxclass" : "newobj",
									"numinlets" : 1,
									"numoutlets" : 0,
									"patching_rect" : [ 176.0, 418.0, 35.0, 22.0 ],
									"text" : "out 1"
								}

							}
 ],
						"lines" : [ 							{
								"patchline" : 								{
									"destination" : [ "obj-3", 0 ],
									"source" : [ "obj-1", 0 ]
								}

							}
, 							{
								"patchline" : 								{
									"destination" : [ "obj-3", 1 ],
									"source" : [ "obj-2", 0 ]
								}

							}
, 							{
								"patchline" : 								{
									"destination" : [ "obj-4", 0 ],
									"source" : [ "obj-3", 0 ]
								}

							}
 ]
					}
,
					"patching_rect" : [ 319.458334559202285, 543.744962693395337, 144.0, 22.0 ],
					"text" : "gen~ transient_crossfade"
				}

			}
, 			{
				"box" : 				{
					"id" : "obj-769",
					"maxclass" : "newobj",
					"numinlets" : 1,
					"numoutlets" : 1,
					"outlettype" : [ "" ],
					"patching_rect" : [ 1024.416670799255371, 13.211432813844254, 70.0, 22.0 ],
					"text" : "loadmess 1"
				}

			}
, 			{
				"box" : 				{
					"bgcolor" : [ 0.152941176470588, 0.0, 0.396078431372549, 0.75 ],
					"bgfillcolor_angle" : 270.0,
					"bgfillcolor_color" : [ 0.152941176470588, 0.0, 0.396078431372549, 0.75 ],
					"bgfillcolor_color1" : [ 0.376470588235294, 0.384313725490196, 0.4, 1.0 ],
					"bgfillcolor_color2" : [ 0.290196078431373, 0.309803921568627, 0.301960784313725, 1.0 ],
					"bgfillcolor_proportion" : 0.39,
					"bgfillcolor_type" : "color",
					"id" : "obj-638",
					"items" : [ "Linear", ",", "Sine", ",", "Cubic", ",", "Quartic" ],
					"maxclass" : "umenu",
					"numinlets" : 1,
					"numoutlets" : 3,
					"outlettype" : [ "int", "", "" ],
					"parameter_enable" : 1,
					"patching_rect" : [ 1024.416670799255371, 49.824844765664693, 100.0, 22.0 ],
					"presentation" : 1,
					"presentation_rect" : [ 558.230945348608316, 361.829182855909949, 83.666670799255371, 22.0 ],
					"saved_attribute_attributes" : 					{
						"valueof" : 						{
							"parameter_enum" : [ "Linear", "Sine", "Cubic", "Quartic" ],
							"parameter_initial" : [ 1.0 ],
							"parameter_initial_enable" : 1,
							"parameter_longname" : "ease select",
							"parameter_mmax" : 3,
							"parameter_shortname" : "ease select",
							"parameter_type" : 2
						}

					}
,
					"textcolor" : [ 1.0, 0.968627450980392, 0.0, 1.0 ],
					"varname" : "ease select"
				}

			}
, 			{
				"box" : 				{
					"id" : "obj-4",
					"maxclass" : "newobj",
					"numinlets" : 2,
					"numoutlets" : 1,
					"outlettype" : [ "int" ],
					"patching_rect" : [ 1024.416670799255371, 86.438256717485132, 29.5, 22.0 ],
					"text" : "+ 1"
				}

			}
, 			{
				"box" : 				{
					"id" : "obj-631",
					"maxclass" : "newobj",
					"numinlets" : 1,
					"numoutlets" : 1,
					"outlettype" : [ "" ],
					"patching_rect" : [ 1024.416670799255371, 123.05166866930557, 120.0, 22.0 ],
					"text" : "prepend ease_select"
				}

			}
, 			{
				"box" : 				{
					"bgcolor" : [ 0.152941176470588, 0.0, 0.396078431372549, 0.75 ],
					"fgcolor" : [ 1.0, 0.968627450980392, 0.0, 1.0 ],
					"floatoutput" : 1,
					"id" : "obj-66",
					"ignoreclick" : 1,
					"maxclass" : "rslider",
					"numinlets" : 2,
					"numoutlets" : 2,
					"outlettype" : [ "", "" ],
					"parameter_enable" : 0,
					"patching_rect" : [ 866.058334559202194, 631.0, 37.050001680850983, 140.0 ],
					"presentation" : 1,
					"presentation_rect" : [ 579.090173076275278, 141.984661341207584, 37.050001680850983, 140.0 ],
					"size" : 1.0
				}

			}
, 			{
				"box" : 				{
					"bgcolor" : [ 0.152941176470588, 0.0, 0.396078431372549, 0.75 ],
					"elementcolor" : [ 0.686274509803922, 0.686274509803922, 0.686274509803922, 1.0 ],
					"floatoutput" : 1,
					"id" : "obj-61",
					"ignoreclick" : 1,
					"knobcolor" : [ 1.0, 0.968627450980392, 0.0, 1.0 ],
					"maxclass" : "slider",
					"numinlets" : 1,
					"numoutlets" : 1,
					"outlettype" : [ "" ],
					"parameter_enable" : 0,
					"patching_rect" : [ 842.75, 631.0, 20.0, 140.0 ],
					"presentation" : 1,
					"presentation_rect" : [ 555.781838517073083, 141.984661341207584, 20.0, 140.0 ],
					"size" : 1.0
				}

			}
, 			{
				"box" : 				{
					"bgcolor" : [ 0.152941176470588, 0.0, 0.396078431372549, 0.75 ],
					"elementcolor" : [ 0.686274509803922, 0.686274509803922, 0.686274509803922, 1.0 ],
					"floatoutput" : 1,
					"id" : "obj-59",
					"ignoreclick" : 1,
					"knobcolor" : [ 1.0, 0.968627450980392, 0.0, 1.0 ],
					"maxclass" : "slider",
					"numinlets" : 1,
					"numoutlets" : 1,
					"outlettype" : [ "" ],
					"parameter_enable" : 0,
					"patching_rect" : [ 906.416670799255371, 631.0, 20.0, 140.0 ],
					"presentation" : 1,
					"presentation_rect" : [ 619.448509316328455, 141.984661341207584, 20.0, 140.0 ],
					"size" : 1.0
				}

			}
, 			{
				"box" : 				{
					"id" : "obj-45",
					"maxclass" : "newobj",
					"numinlets" : 2,
					"numoutlets" : 1,
					"outlettype" : [ "float" ],
					"patching_rect" : [ 734.058334559202194, 577.964337810833513, 82.0, 22.0 ],
					"text" : "peakamp~ 17"
				}

			}
, 			{
				"box" : 				{
					"id" : "obj-30",
					"maxclass" : "newobj",
					"numinlets" : 2,
					"numoutlets" : 1,
					"outlettype" : [ "float" ],
					"patching_rect" : [ 1024.416670799255371, 577.964337810833513, 81.0, 22.0 ],
					"text" : "snapshot~ 17"
				}

			}
 ],
		"lines" : [ 			{
				"patchline" : 				{
					"destination" : [ "obj-22", 0 ],
					"order" : 0,
					"source" : [ "obj-1", 0 ]
				}

			}
, 			{
				"patchline" : 				{
					"destination" : [ "obj-57", 0 ],
					"order" : 1,
					"source" : [ "obj-1", 0 ]
				}

			}
, 			{
				"patchline" : 				{
					"destination" : [ "obj-52", 0 ],
					"source" : [ "obj-10", 0 ]
				}

			}
, 			{
				"patchline" : 				{
					"destination" : [ "obj-52", 0 ],
					"source" : [ "obj-12", 0 ]
				}

			}
, 			{
				"patchline" : 				{
					"destination" : [ "obj-52", 0 ],
					"source" : [ "obj-13", 0 ]
				}

			}
, 			{
				"patchline" : 				{
					"destination" : [ "obj-49", 0 ],
					"source" : [ "obj-15", 0 ]
				}

			}
, 			{
				"patchline" : 				{
					"destination" : [ "obj-15", 0 ],
					"source" : [ "obj-16", 0 ]
				}

			}
, 			{
				"patchline" : 				{
					"destination" : [ "obj-178", 0 ],
					"order" : 0,
					"source" : [ "obj-166", 0 ]
				}

			}
, 			{
				"patchline" : 				{
					"destination" : [ "obj-22", 1 ],
					"order" : 1,
					"source" : [ "obj-166", 0 ]
				}

			}
, 			{
				"patchline" : 				{
					"destination" : [ "obj-52", 0 ],
					"source" : [ "obj-17", 0 ]
				}

			}
, 			{
				"patchline" : 				{
					"destination" : [ "obj-189", 1 ],
					"source" : [ "obj-178", 0 ]
				}

			}
, 			{
				"patchline" : 				{
					"destination" : [ "obj-14", 1 ],
					"order" : 0,
					"source" : [ "obj-189", 1 ]
				}

			}
, 			{
				"patchline" : 				{
					"destination" : [ "obj-14", 0 ],
					"order" : 0,
					"source" : [ "obj-189", 0 ]
				}

			}
, 			{
				"patchline" : 				{
					"destination" : [ "obj-63", 1 ],
					"order" : 1,
					"source" : [ "obj-189", 1 ]
				}

			}
, 			{
				"patchline" : 				{
					"destination" : [ "obj-63", 0 ],
					"order" : 1,
					"source" : [ "obj-189", 0 ]
				}

			}
, 			{
				"patchline" : 				{
					"destination" : [ "obj-49", 0 ],
					"source" : [ "obj-19", 0 ]
				}

			}
, 			{
				"patchline" : 				{
					"color" : [ 0.692200303077698, 0.0, 0.051212161779404, 1.0 ],
					"destination" : [ "obj-66", 0 ],
					"source" : [ "obj-2", 0 ]
				}

			}
, 			{
				"patchline" : 				{
					"destination" : [ "obj-10", 0 ],
					"source" : [ "obj-20", 3 ]
				}

			}
, 			{
				"patchline" : 				{
					"destination" : [ "obj-12", 0 ],
					"source" : [ "obj-20", 2 ]
				}

			}
, 			{
				"patchline" : 				{
					"destination" : [ "obj-13", 0 ],
					"source" : [ "obj-20", 1 ]
				}

			}
, 			{
				"patchline" : 				{
					"destination" : [ "obj-17", 0 ],
					"source" : [ "obj-20", 0 ]
				}

			}
, 			{
				"patchline" : 				{
					"color" : [ 0.755892157554626, 0.305682182312012, 0.0, 1.0 ],
					"destination" : [ "obj-1", 0 ],
					"source" : [ "obj-203", 0 ]
				}

			}
, 			{
				"patchline" : 				{
					"color" : [ 0.755892157554626, 0.305682182312012, 0.0, 1.0 ],
					"destination" : [ "obj-166", 0 ],
					"source" : [ "obj-203", 1 ]
				}

			}
, 			{
				"patchline" : 				{
					"destination" : [ "obj-189", 0 ],
					"source" : [ "obj-207", 0 ]
				}

			}
, 			{
				"patchline" : 				{
					"destination" : [ "obj-208", 0 ],
					"source" : [ "obj-209", 0 ]
				}

			}
, 			{
				"patchline" : 				{
					"destination" : [ "obj-19", 0 ],
					"source" : [ "obj-21", 0 ]
				}

			}
, 			{
				"patchline" : 				{
					"destination" : [ "obj-212", 0 ],
					"source" : [ "obj-211", 0 ]
				}

			}
, 			{
				"patchline" : 				{
					"destination" : [ "obj-49", 0 ],
					"source" : [ "obj-212", 0 ]
				}

			}
, 			{
				"patchline" : 				{
					"destination" : [ "obj-24", 1 ],
					"source" : [ "obj-22", 0 ]
				}

			}
, 			{
				"patchline" : 				{
					"destination" : [ "obj-27", 1 ],
					"source" : [ "obj-22", 1 ]
				}

			}
, 			{
				"patchline" : 				{
					"destination" : [ "obj-49", 0 ],
					"source" : [ "obj-23", 0 ]
				}

			}
, 			{
				"patchline" : 				{
					"destination" : [ "obj-57", 0 ],
					"source" : [ "obj-24", 0 ]
				}

			}
, 			{
				"patchline" : 				{
					"destination" : [ "obj-23", 0 ],
					"source" : [ "obj-25", 0 ]
				}

			}
, 			{
				"patchline" : 				{
					"destination" : [ "obj-49", 0 ],
					"source" : [ "obj-26", 0 ]
				}

			}
, 			{
				"patchline" : 				{
					"destination" : [ "obj-178", 0 ],
					"source" : [ "obj-27", 0 ]
				}

			}
, 			{
				"patchline" : 				{
					"destination" : [ "obj-26", 0 ],
					"source" : [ "obj-28", 1 ]
				}

			}
, 			{
				"patchline" : 				{
					"color" : [ 0.129302591085434, 0.823479175567627, 0.814016103744507, 1.0 ],
					"destination" : [ "obj-66", 1 ],
					"source" : [ "obj-3", 0 ]
				}

			}
, 			{
				"patchline" : 				{
					"destination" : [ "obj-59", 0 ],
					"source" : [ "obj-30", 0 ]
				}

			}
, 			{
				"patchline" : 				{
					"destination" : [ "obj-24", 0 ],
					"order" : 1,
					"source" : [ "obj-32", 0 ]
				}

			}
, 			{
				"patchline" : 				{
					"destination" : [ "obj-27", 0 ],
					"order" : 0,
					"source" : [ "obj-32", 0 ]
				}

			}
, 			{
				"patchline" : 				{
					"destination" : [ "obj-40", 0 ],
					"source" : [ "obj-33", 1 ]
				}

			}
, 			{
				"patchline" : 				{
					"destination" : [ "obj-51", 1 ],
					"source" : [ "obj-35", 0 ]
				}

			}
, 			{
				"patchline" : 				{
					"destination" : [ "obj-20", 0 ],
					"source" : [ "obj-36", 1 ]
				}

			}
, 			{
				"patchline" : 				{
					"destination" : [ "obj-38", 0 ],
					"source" : [ "obj-36", 0 ]
				}

			}
, 			{
				"patchline" : 				{
					"destination" : [ "obj-62", 0 ],
					"source" : [ "obj-37", 0 ]
				}

			}
, 			{
				"patchline" : 				{
					"destination" : [ "obj-42", 0 ],
					"source" : [ "obj-38", 0 ]
				}

			}
, 			{
				"patchline" : 				{
					"destination" : [ "obj-41", 0 ],
					"source" : [ "obj-39", 1 ]
				}

			}
, 			{
				"patchline" : 				{
					"destination" : [ "obj-631", 0 ],
					"source" : [ "obj-4", 0 ]
				}

			}
, 			{
				"patchline" : 				{
					"destination" : [ "obj-49", 0 ],
					"source" : [ "obj-40", 0 ]
				}

			}
, 			{
				"patchline" : 				{
					"destination" : [ "obj-49", 0 ],
					"source" : [ "obj-41", 0 ]
				}

			}
, 			{
				"patchline" : 				{
					"destination" : [ "obj-37", 1 ],
					"source" : [ "obj-42", 0 ]
				}

			}
, 			{
				"patchline" : 				{
					"destination" : [ "obj-49", 0 ],
					"source" : [ "obj-43", 0 ]
				}

			}
, 			{
				"patchline" : 				{
					"destination" : [ "obj-43", 0 ],
					"source" : [ "obj-44", 1 ]
				}

			}
, 			{
				"patchline" : 				{
					"destination" : [ "obj-61", 0 ],
					"source" : [ "obj-45", 0 ]
				}

			}
, 			{
				"patchline" : 				{
					"destination" : [ "obj-49", 0 ],
					"source" : [ "obj-46", 0 ]
				}

			}
, 			{
				"patchline" : 				{
					"destination" : [ "obj-51", 0 ],
					"source" : [ "obj-47", 0 ]
				}

			}
, 			{
				"patchline" : 				{
					"destination" : [ "obj-46", 0 ],
					"source" : [ "obj-48", 0 ]
				}

			}
, 			{
				"patchline" : 				{
					"destination" : [ "obj-9", 0 ],
					"source" : [ "obj-5", 0 ]
				}

			}
, 			{
				"patchline" : 				{
					"destination" : [ "obj-1", 0 ],
					"order" : 1,
					"source" : [ "obj-50", 0 ]
				}

			}
, 			{
				"patchline" : 				{
					"destination" : [ "obj-166", 0 ],
					"order" : 0,
					"source" : [ "obj-50", 0 ]
				}

			}
, 			{
				"patchline" : 				{
					"destination" : [ "obj-58", 0 ],
					"source" : [ "obj-51", 0 ]
				}

			}
, 			{
				"patchline" : 				{
					"destination" : [ "obj-53", 0 ],
					"source" : [ "obj-52", 0 ]
				}

			}
, 			{
				"patchline" : 				{
					"destination" : [ "obj-37", 0 ],
					"source" : [ "obj-53", 0 ]
				}

			}
, 			{
				"patchline" : 				{
					"destination" : [ "obj-73", 0 ],
					"source" : [ "obj-54", 0 ]
				}

			}
, 			{
				"patchline" : 				{
					"destination" : [ "obj-54", 0 ],
					"source" : [ "obj-55", 0 ]
				}

			}
, 			{
				"patchline" : 				{
					"destination" : [ "obj-36", 0 ],
					"source" : [ "obj-56", 0 ]
				}

			}
, 			{
				"patchline" : 				{
					"destination" : [ "obj-189", 0 ],
					"source" : [ "obj-57", 0 ]
				}

			}
, 			{
				"patchline" : 				{
					"destination" : [ "obj-55", 0 ],
					"order" : 0,
					"source" : [ "obj-58", 0 ]
				}

			}
, 			{
				"patchline" : 				{
					"destination" : [ "obj-60", 0 ],
					"order" : 1,
					"source" : [ "obj-58", 0 ]
				}

			}
, 			{
				"patchline" : 				{
					"destination" : [ "obj-56", 0 ],
					"source" : [ "obj-60", 0 ]
				}

			}
, 			{
				"patchline" : 				{
					"destination" : [ "obj-1", 1 ],
					"order" : 1,
					"source" : [ "obj-62", 0 ]
				}

			}
, 			{
				"patchline" : 				{
					"destination" : [ "obj-166", 1 ],
					"order" : 0,
					"source" : [ "obj-62", 0 ]
				}

			}
, 			{
				"patchline" : 				{
					"destination" : [ "obj-203", 1 ],
					"order" : 2,
					"source" : [ "obj-62", 0 ]
				}

			}
, 			{
				"patchline" : 				{
					"destination" : [ "obj-203", 0 ],
					"order" : 3,
					"source" : [ "obj-62", 0 ]
				}

			}
, 			{
				"patchline" : 				{
					"destination" : [ "obj-49", 0 ],
					"source" : [ "obj-631", 0 ]
				}

			}
, 			{
				"patchline" : 				{
					"destination" : [ "obj-4", 0 ],
					"source" : [ "obj-638", 0 ]
				}

			}
, 			{
				"patchline" : 				{
					"destination" : [ "obj-90", 0 ],
					"source" : [ "obj-65", 0 ]
				}

			}
, 			{
				"patchline" : 				{
					"destination" : [ "obj-90", 0 ],
					"source" : [ "obj-67", 0 ]
				}

			}
, 			{
				"patchline" : 				{
					"destination" : [ "obj-9", 0 ],
					"source" : [ "obj-68", 0 ]
				}

			}
, 			{
				"patchline" : 				{
					"destination" : [ "obj-9", 0 ],
					"source" : [ "obj-69", 0 ]
				}

			}
, 			{
				"patchline" : 				{
					"destination" : [ "obj-9", 0 ],
					"source" : [ "obj-71", 0 ]
				}

			}
, 			{
				"patchline" : 				{
					"destination" : [ "obj-5", 0 ],
					"source" : [ "obj-72", 1 ]
				}

			}
, 			{
				"patchline" : 				{
					"destination" : [ "obj-68", 0 ],
					"source" : [ "obj-72", 3 ]
				}

			}
, 			{
				"patchline" : 				{
					"destination" : [ "obj-69", 0 ],
					"source" : [ "obj-72", 2 ]
				}

			}
, 			{
				"patchline" : 				{
					"destination" : [ "obj-71", 0 ],
					"source" : [ "obj-72", 0 ]
				}

			}
, 			{
				"patchline" : 				{
					"destination" : [ "obj-72", 0 ],
					"source" : [ "obj-73", 1 ]
				}

			}
, 			{
				"patchline" : 				{
					"destination" : [ "obj-75", 0 ],
					"source" : [ "obj-73", 0 ]
				}

			}
, 			{
				"patchline" : 				{
					"destination" : [ "obj-62", 0 ],
					"source" : [ "obj-74", 0 ]
				}

			}
, 			{
				"patchline" : 				{
					"destination" : [ "obj-8", 0 ],
					"source" : [ "obj-75", 0 ]
				}

			}
, 			{
				"patchline" : 				{
					"destination" : [ "obj-77", 0 ],
					"source" : [ "obj-76", 0 ]
				}

			}
, 			{
				"patchline" : 				{
					"destination" : [ "obj-638", 0 ],
					"source" : [ "obj-769", 0 ]
				}

			}
, 			{
				"patchline" : 				{
					"destination" : [ "obj-49", 0 ],
					"source" : [ "obj-77", 0 ]
				}

			}
, 			{
				"patchline" : 				{
					"destination" : [ "obj-74", 0 ],
					"source" : [ "obj-78", 0 ]
				}

			}
, 			{
				"patchline" : 				{
					"destination" : [ "obj-90", 0 ],
					"source" : [ "obj-79", 0 ]
				}

			}
, 			{
				"patchline" : 				{
					"destination" : [ "obj-74", 1 ],
					"source" : [ "obj-8", 0 ]
				}

			}
, 			{
				"patchline" : 				{
					"destination" : [ "obj-90", 0 ],
					"source" : [ "obj-80", 0 ]
				}

			}
, 			{
				"patchline" : 				{
					"destination" : [ "obj-65", 0 ],
					"source" : [ "obj-81", 3 ]
				}

			}
, 			{
				"patchline" : 				{
					"destination" : [ "obj-67", 0 ],
					"source" : [ "obj-81", 2 ]
				}

			}
, 			{
				"patchline" : 				{
					"destination" : [ "obj-79", 0 ],
					"source" : [ "obj-81", 1 ]
				}

			}
, 			{
				"patchline" : 				{
					"destination" : [ "obj-80", 0 ],
					"source" : [ "obj-81", 0 ]
				}

			}
, 			{
				"patchline" : 				{
					"destination" : [ "obj-89", 1 ],
					"source" : [ "obj-83", 0 ]
				}

			}
, 			{
				"patchline" : 				{
					"destination" : [ "obj-81", 0 ],
					"source" : [ "obj-84", 1 ]
				}

			}
, 			{
				"patchline" : 				{
					"destination" : [ "obj-86", 0 ],
					"source" : [ "obj-84", 0 ]
				}

			}
, 			{
				"patchline" : 				{
					"destination" : [ "obj-62", 0 ],
					"source" : [ "obj-85", 0 ]
				}

			}
, 			{
				"patchline" : 				{
					"destination" : [ "obj-87", 0 ],
					"source" : [ "obj-86", 0 ]
				}

			}
, 			{
				"patchline" : 				{
					"destination" : [ "obj-85", 1 ],
					"source" : [ "obj-87", 0 ]
				}

			}
, 			{
				"patchline" : 				{
					"destination" : [ "obj-89", 0 ],
					"source" : [ "obj-88", 0 ]
				}

			}
, 			{
				"patchline" : 				{
					"destination" : [ "obj-94", 0 ],
					"source" : [ "obj-89", 0 ]
				}

			}
, 			{
				"patchline" : 				{
					"destination" : [ "obj-78", 0 ],
					"source" : [ "obj-9", 0 ]
				}

			}
, 			{
				"patchline" : 				{
					"destination" : [ "obj-92", 0 ],
					"source" : [ "obj-90", 0 ]
				}

			}
, 			{
				"patchline" : 				{
					"destination" : [ "obj-85", 0 ],
					"source" : [ "obj-92", 0 ]
				}

			}
, 			{
				"patchline" : 				{
					"destination" : [ "obj-84", 0 ],
					"source" : [ "obj-93", 0 ]
				}

			}
, 			{
				"patchline" : 				{
					"destination" : [ "obj-95", 0 ],
					"source" : [ "obj-94", 0 ]
				}

			}
, 			{
				"patchline" : 				{
					"destination" : [ "obj-93", 0 ],
					"source" : [ "obj-95", 0 ]
				}

			}
 ],
		"parameters" : 		{
			"obj-16" : [ "lookahead", "lookahead", 0 ],
			"obj-189" : [ "main", "main", 0 ],
			"obj-21" : [ "env gain", "env gain", 0 ],
			"obj-211" : [ "toggle[1]", "toggle", 0 ],
			"obj-25" : [ "env decay", "env decay", 0 ],
			"obj-28" : [ "exp pdl", "exp pdl", 0 ],
			"obj-32" : [ "enable simple delay", "enable simple delay", 0 ],
			"obj-33" : [ "ceiling", "ceiling", 0 ],
			"obj-39" : [ "floor", "floor", 0 ],
			"obj-44" : [ "interpolate crossfades", "interpolate crossfades", 0 ],
			"obj-48" : [ "toggle", "toggle", 0 ],
			"obj-638" : [ "ease select", "ease select", 0 ],
			"obj-63::obj-52" : [ "Level", "Level", 0 ],
			"obj-63::obj-7" : [ "AutoName", "AutoName", 0 ],
			"obj-63::obj-73" : [ "Format", "Format", 0 ],
			"obj-63::obj-74" : [ "Channels", "Channels", 0 ],
			"obj-63::obj-76" : [ "Record", "Record", 0 ],
			"obj-63::obj-77" : [ "getsamplelength", "getsamplelength", 0 ],
			"obj-76" : [ "env attack", "env attack", 0 ],
			"parameterbanks" : 			{
				"0" : 				{
					"index" : 0,
					"name" : "",
					"parameters" : [ "-", "-", "-", "-", "-", "-", "-", "-" ]
				}

			}
,
			"inherited_shortname" : 1
		}
,
		"dependency_cache" : [ 			{
				"name" : "bp.Recordr.maxpat",
				"bootpath" : "C74:/packages/BEAP/clippings/BEAP/Output",
				"type" : "JSON",
				"implicit" : 1
			}
 ],
		"autosave" : 0,
		"bgcolor" : [ 0.427450980392157, 0.329411764705882, 0.576470588235294, 1.0 ],
		"editing_bgcolor" : [ 0.572549019607843, 0.572549019607843, 0.572549019607843, 1.0 ]
	}

}
